<?xml version="1.0" encoding="utf-8"?>
<!-- Generator: Adobe Illustrator 15.0.0, SVG Export Plug-In . SVG Version: 6.00 Build 0)  -->
<!DOCTYPE svg PUBLIC "-//W3C//DTD SVG 1.1//EN" "http://www.w3.org/Graphics/SVG/1.1/DTD/svg11.dtd">
<svg version="1.1" id="Layer_1" xmlns:serif="http://www.serif.com/"
	 xmlns="http://www.w3.org/2000/svg" xmlns:xlink="http://www.w3.org/1999/xlink" x="0px" y="0px" width="566.136px"
	 height="567.444px" viewBox="22.381 112.674 566.136 567.444" enable-background="new 22.381 112.674 566.136 567.444"
	 xml:space="preserve">
<g id="Circle-Letters" transform="matrix(0.818915,0,0,0.861275,4407.1,526.667)" serif:id="Circle Letters">
	<g transform="matrix(1.35692,0,0,1.29018,-5978.07,-2050.2)">
		<g transform="matrix(-14.6724,-284.599,284.599,-14.6724,874.867,3491.46)">
			<path fill="#676360" d="M7.069-0.987h0.023l0-0.04c0-0.009,0-0.019-0.001-0.029c0.003,0.008,0.006,0.015,0.01,0.024l0.022,0.045
				l0.023,0l0-0.103H7.123l0,0.039c0,0.008,0,0.019,0.001,0.028C7.121-1.03,7.116-1.041,7.114-1.046L7.093-1.09l-0.024,0
				L7.069-0.987z"/>
		</g>
		<g transform="matrix(18.501,-284.376,284.376,18.501,866.251,3309.22)">
			<path fill="#676360" d="M6.413-1.764L6.419-1.74l0.026,0l-0.03-0.103l-0.026,0L6.358-1.74l0.024,0l0.006-0.024L6.413-1.764z
				 M6.391-1.78l0.003-0.01c0.002-0.008,0.005-0.02,0.007-0.028C6.402-1.81,6.405-1.798,6.407-1.79l0.002,0.01L6.391-1.78z"/>
		</g>
		<g transform="matrix(46.3042,-281.19,281.19,46.3042,876.656,3150.64)">
			<path fill="#676360" d="M5.71-2.309h0.025l0-0.084l0.023,0l0.002-0.02l-0.074,0l0,0.02l0.024,0V-2.309z"/>
		</g>
		<g transform="matrix(67.5181,-276.863,276.863,67.5181,902.691,3001.8)">
			<rect x="5.049" y="-2.807" fill="#676360" width="0.025" height="0.103"/>
		</g>
		<g transform="matrix(92.0428,-269.703,269.703,92.0428,920.523,2920.34)">
			<path fill="#676360" d="M4.579-3.134c-0.012,0-0.017-0.008-0.017-0.035c0-0.024,0.004-0.034,0.017-0.034
				c0.012,0,0.017,0.009,0.017,0.034C4.596-3.142,4.591-3.134,4.579-3.134z M4.579-3.115c0.029,0,0.043-0.019,0.043-0.055
				c0-0.031-0.015-0.052-0.043-0.052c-0.029,0-0.044,0.022-0.044,0.055C4.535-3.135,4.551-3.115,4.579-3.115z"/>
		</g>
		<g transform="matrix(124.548,-256.319,256.319,124.548,982.98,2740.22)">
			<path fill="#676360" d="M3.555-3.583l0.023,0l0-0.04c0-0.009,0-0.019-0.001-0.029c0.003,0.008,0.006,0.015,0.01,0.024
				l0.022,0.045l0.023,0l0-0.103H3.608l0,0.039c0,0.008,0,0.019,0.001,0.028c-0.003-0.008-0.008-0.019-0.01-0.024L3.578-3.687
				l-0.024,0V-3.583z"/>
		</g>
		<g transform="matrix(153.85,-239.879,239.879,153.85,1063.35,2576.63)">
			<path fill="#676360" d="M2.615-3.938l0.006,0.024l0.026,0l-0.03-0.103l-0.026,0L2.56-3.914l0.024,0L2.59-3.938L2.615-3.938z
				 M2.594-3.955l0.003-0.01c0.002-0.008,0.005-0.02,0.007-0.028c0.001,0.008,0.004,0.02,0.006,0.028l0.002,0.01L2.594-3.955z"/>
		</g>
		<g transform="matrix(178.275,-222.328,222.328,178.275,1158.72,2430.11)">
			<path fill="#676360" d="M1.62-4.111l0.058,0l0.001-0.02l-0.035,0l0-0.083l-0.025,0L1.62-4.111z"/>
		</g>
		<g transform="matrix(208.652,-194.103,194.103,208.652,1289.38,2272.65)">
			<path fill="#676360" d="M0.425-4.243l0-0.063h0.007c0.014,0,0.021,0.003,0.021,0.03c0,0.029-0.007,0.033-0.02,0.033L0.425-4.243z
				 M0.4-4.223h0.034c0.032,0,0.045-0.022,0.045-0.053c0-0.036-0.016-0.05-0.046-0.05l-0.032,0L0.4-4.223z"/>
		</g>
		<g transform="matrix(229.844,-168.474,168.474,229.844,1421.32,2150.3)">
			<path fill="#676360" d="M-0.604-4.236l0-0.027h0.008c0.01,0,0.015,0.004,0.015,0.013c0,0.01-0.004,0.014-0.015,0.014H-0.604z
				 M-0.629-4.178h0.025l0-0.041h0.003c0.006,0,0.008,0.001,0.011,0.008l0.012,0.033l0.027,0l-0.015-0.036
				C-0.569-4.22-0.572-4.225-0.578-4.226c0.014-0.003,0.021-0.011,0.021-0.027c0-0.02-0.014-0.029-0.039-0.029h-0.033L-0.629-4.178z
				"/>
		</g>
		<g transform="matrix(247.338,-141.547,141.547,247.338,1557.49,2049.95)">
			<path fill="#676360" d="M-1.556-4.039c-0.012,0-0.017-0.008-0.017-0.035c0-0.024,0.004-0.034,0.017-0.034
				c0.012,0,0.017,0.009,0.017,0.034C-1.539-4.047-1.544-4.039-1.556-4.039z M-1.556-4.02c0.029,0,0.043-0.019,0.043-0.055
				c0-0.031-0.015-0.052-0.043-0.052c-0.029,0-0.044,0.022-0.044,0.055C-1.6-4.04-1.585-4.02-1.556-4.02z"/>
		</g>
		<g transform="matrix(262.648,-110.578,110.578,262.648,1723.31,1956.26)">
			<path fill="#676360" d="M-2.6-3.731c0.025,0,0.038-0.011,0.038-0.034l0-0.072l-0.025,0v0.07c0,0.01-0.004,0.015-0.013,0.015
				c-0.009,0-0.013-0.005-0.013-0.015v-0.07l-0.025,0l0,0.071C-2.638-3.742-2.626-3.731-2.6-3.731z"/>
		</g>
		<g transform="matrix(273.657,-79.5207,79.5207,273.657,1886.15,1888.41)">
			<path fill="#676360" d="M-3.532-3.342c0.012,0,0.023-0.003,0.033-0.009l0-0.051h-0.038l0.001,0.019l0.014,0v0.02
				c-0.003,0.001-0.006,0.002-0.01,0.002c-0.014,0-0.019-0.01-0.019-0.035c0-0.024,0.006-0.033,0.02-0.033
				c0.009,0,0.015,0.004,0.021,0.009L-3.5-3.438c-0.007-0.006-0.018-0.011-0.032-0.011c-0.03,0-0.046,0.019-0.046,0.054
				C-3.578-3.36-3.562-3.342-3.532-3.342z"/>
		</g>
		<g transform="matrix(281.171,-46.4148,46.4148,281.171,2057.13,1839.47)">
			<path fill="#676360" d="M-4.474-2.833l0.025,0v-0.045l0.025,0v0.045l0.025,0l0-0.103l-0.025,0v0.039l-0.025,0v-0.039l-0.025,0
				V-2.833z"/>
		</g>
		<g transform="matrix(284.569,-15.2357,15.2357,284.569,2233.18,1811.55)">
			<path fill="#676360" d="M-5.269-2.268l0.025,0l0-0.084l0.023,0l0.002-0.02l-0.074,0l0,0.02l0.024,0L-5.269-2.268z"/>
		</g>
		<g transform="matrix(283.166,32.0736,-32.0736,283.166,2455.33,1803.05)">
			<path fill="#676360" d="M-6.252-1.261l0.023,0l0.003-0.043c0-0.009,0.001-0.022,0.001-0.03c0.001,0.008,0.004,0.02,0.006,0.029
				l0.01,0.044l0.02,0l0.01-0.045c0.002-0.009,0.005-0.021,0.006-0.029c0,0.008,0.001,0.022,0.002,0.03l0.003,0.043l0.024,0
				l-0.009-0.103l-0.028,0l-0.01,0.038c-0.002,0.008-0.005,0.021-0.007,0.03C-6.2-1.305-6.202-1.317-6.205-1.326l-0.01-0.038h-0.029
				L-6.252-1.261z"/>
		</g>
		<g transform="matrix(278.441,60.6834,-60.6834,278.441,2677.33,1832.23)">
			<rect x="-7.009" y="-0.666" fill="#676360" width="0.025" height="0.103"/>
		</g>
		<g transform="matrix(272.841,82.2778,-82.2778,272.841,2757.81,1848.6)">
			<path fill="#676360" d="M-7.258,0.011l0.025,0l0-0.084l0.023,0l0.002-0.02l-0.074,0l0,0.02l0.024,0L-7.258,0.011z"/>
		</g>
		<g transform="matrix(265.8,102.772,-102.772,265.8,2901.95,1893.64)">
			<rect x="-7.705" y="0.49" fill="#676360" width="0.025" height="0.103"/>
		</g>
		<g transform="matrix(256.272,124.645,-124.645,256.272,2979.6,1922.01)">
			<path fill="#676360" d="M-7.832,1.264c0.012,0,0.023-0.003,0.033-0.009l0-0.051l-0.038,0l0.001,0.019l0.014,0l0,0.02
				c-0.003,0.001-0.006,0.002-0.01,0.002c-0.014,0-0.019-0.01-0.019-0.035c0-0.024,0.006-0.033,0.02-0.033
				c0.009,0,0.015,0.004,0.021,0.009L-7.8,1.168c-0.007-0.006-0.018-0.011-0.032-0.011c-0.03,0-0.046,0.019-0.046,0.054
				C-7.878,1.246-7.862,1.264-7.832,1.264z"/>
		</g>
		<g transform="matrix(239.821,153.94,-153.94,239.821,3139.43,2000.64)">
			<path fill="#676360" d="M-8.152,2.217l0.006,0.024l0.026,0l-0.03-0.103l-0.026,0l-0.032,0.103l0.024,0l0.006-0.024L-8.152,2.217z
				 M-8.173,2.201l0.003-0.01c0.002-0.008,0.005-0.02,0.007-0.028c0.001,0.008,0.004,0.02,0.006,0.028l0.002,0.01L-8.173,2.201z"/>
		</g>
		<g transform="matrix(223.587,176.694,-176.694,223.587,3273.31,2086.71)">
			<path fill="#676360" d="M-8.395,3.08l0.025,0V2.997l0.023,0l0.002-0.02l-0.074,0l0,0.02l0.024,0V3.08z"/>
		</g>
		<g transform="matrix(209.733,192.935,-192.935,209.733,3390.74,2181.4)">
			<rect x="-8.609" y="3.628" fill="#676360" width="0.025" height="0.103"/>
		</g>
		<g transform="matrix(191.917,210.664,-210.664,191.917,3453.25,2236.25)">
			<path fill="#676360" d="M-8.454,4.487c-0.012,0-0.017-0.008-0.017-0.035c0-0.024,0.004-0.034,0.017-0.034
				c0.012,0,0.017,0.009,0.017,0.034C-8.438,4.479-8.442,4.487-8.454,4.487z M-8.454,4.506c0.029,0,0.043-0.019,0.043-0.055
				c0-0.031-0.015-0.052-0.043-0.052c-0.029,0-0.044,0.022-0.044,0.055C-8.498,4.486-8.483,4.506-8.454,4.506z"/>
		</g>
		<g transform="matrix(164.927,232.402,-232.402,164.927,3580.63,2377.36)">
			<path fill="#676360" d="M-8.449,5.569h0.023l0-0.04c0-0.009,0-0.019-0.001-0.029c0.003,0.008,0.006,0.015,0.01,0.024l0.022,0.045
				h0.023l0-0.103l-0.023,0l0,0.039c0,0.008,0,0.019,0.001,0.028c-0.003-0.008-0.008-0.019-0.01-0.024l-0.021-0.044l-0.024,0V5.569z
				"/>
		</g>
		<g transform="matrix(126.008,255.605,-255.605,126.008,3719.26,2584.24)">
			<path fill="#676360" d="M-8.156,6.939c0.014,0,0.023-0.003,0.031-0.009l-0.009-0.019c-0.006,0.004-0.011,0.007-0.02,0.007
				c-0.015,0-0.021-0.008-0.021-0.034c0-0.023,0.006-0.032,0.021-0.032c0.008,0,0.014,0.003,0.02,0.007l0.009-0.019
				c-0.008-0.006-0.017-0.009-0.031-0.009c-0.03,0-0.046,0.019-0.046,0.054C-8.201,6.92-8.185,6.939-8.156,6.939z"/>
		</g>
		<g transform="matrix(98.979,267.236,-267.236,98.979,3790.83,2730.76)">
			<path fill="#676360" d="M-7.923,7.794h0.062l0-0.02l-0.038,0l0-0.024l0.028,0l0-0.019l-0.028,0l0-0.02l0.034,0l0.002-0.02
				l-0.06,0L-7.923,7.794z"/>
		</g>
		<g transform="matrix(70.2142,276.191,-276.191,70.2142,3842.23,2867.7)">
			<path fill="#676360" d="M-7.491,8.636l0.023,0l0-0.04c0-0.009,0-0.019-0.001-0.029c0.003,0.008,0.006,0.015,0.01,0.024
				l0.022,0.045l0.023,0V8.533l-0.023,0l0,0.039c0,0.008,0,0.019,0.001,0.028c-0.003-0.008-0.008-0.019-0.01-0.024l-0.021-0.044
				l-0.024,0L-7.491,8.636z"/>
		</g>
		<g transform="matrix(38.8747,282.313,-282.313,38.8747,3885.82,3044.23)">
			<path fill="#676360" d="M-6.999,9.478l0.025,0l0-0.084h0.023l0.002-0.02h-0.074l0,0.02h0.024V9.478z"/>
		</g>
		<g transform="matrix(10.7263,284.775,-284.775,10.7263,3906.34,3195.86)">
			<path fill="#676360" d="M-6.5,10.171l0.062,0v-0.02h-0.038l0-0.024l0.028,0l0-0.019l-0.028,0v-0.02l0.034,0l0.002-0.02H-6.5
				L-6.5,10.171z"/>
		</g>
		<g transform="matrix(-19.0636,284.338,-284.338,-19.0636,3912.53,3342.54)">
			<path fill="#676360" d="M-5.814,10.785l0-0.027l0.008,0c0.01,0,0.015,0.004,0.015,0.013c0,0.01-0.004,0.014-0.015,0.014H-5.814z
				 M-5.839,10.843l0.025,0l0-0.041h0.003c0.006,0,0.008,0.001,0.011,0.008l0.012,0.033l0.027,0l-0.015-0.036
				c-0.003-0.006-0.006-0.011-0.012-0.012c0.014-0.003,0.021-0.011,0.021-0.027c0-0.02-0.014-0.029-0.039-0.029l-0.033,0
				L-5.839,10.843z"/>
		</g>
		<g transform="matrix(149.128,242.843,-242.843,149.128,878.728,4154)">
			<path fill="#676360" d="M-8.323-3.539c0.025,0,0.038-0.011,0.038-0.034v-0.072l-0.025,0v0.07c0,0.01-0.004,0.015-0.013,0.015
				c-0.009,0-0.013-0.005-0.013-0.015v-0.07l-0.025,0v0.071C-8.361-3.55-8.349-3.539-8.323-3.539z"/>
		</g>
		<g transform="matrix(176.527,223.719,-223.719,176.527,984.915,4323.46)">
			<path fill="#676360" d="M-8.482-4.56l0.023,0V-4.6c0-0.009,0-0.019-0.001-0.029c0.003,0.008,0.006,0.015,0.01,0.024l0.022,0.045
				l0.023,0l0-0.103l-0.023,0l0,0.039c0,0.008,0,0.019,0.001,0.028C-8.43-4.604-8.435-4.615-8.437-4.62l-0.021-0.044l-0.024,0
				L-8.482-4.56z"/>
		</g>
		<g transform="matrix(195.034,207.783,-207.783,195.034,1109.13,4475.82)">
			<rect x="-8.646" y="-5.415" fill="#676360" width="0.025" height="0.103"/>
		</g>
		<g transform="matrix(211.733,190.738,-190.738,211.733,1176.69,4549.08)">
			<path fill="#676360" d="M-8.446-6.044l0.028,0l0.031-0.103l-0.024,0l-0.012,0.05C-8.427-6.089-8.43-6.078-8.431-6.07
				c-0.001-0.008-0.004-0.02-0.006-0.028l-0.012-0.05l-0.027,0L-8.446-6.044z"/>
		</g>
		<g transform="matrix(230.973,166.922,-166.922,230.973,1324.21,4679.01)">
			<path fill="#676360" d="M-8.356-6.975l0.062,0v-0.02l-0.038,0l0-0.024l0.028,0v-0.019l-0.028,0v-0.02h0.034l0.002-0.02l-0.06,0
				L-8.356-6.975z"/>
		</g>
		<g transform="matrix(247.231,141.734,-141.734,247.231,1459.77,4776.48)">
			<path fill="#676360" d="M-8.048-7.924l0-0.027h0.008c0.01,0,0.015,0.004,0.015,0.013c0,0.01-0.004,0.014-0.015,0.014
				L-8.048-7.924z M-8.073-7.866h0.025l0-0.041l0.003,0c0.006,0,0.008,0.001,0.011,0.008l0.012,0.033l0.027,0l-0.015-0.036
				c-0.003-0.006-0.006-0.011-0.012-0.012c0.014-0.003,0.021-0.011,0.021-0.027c0-0.02-0.014-0.029-0.039-0.029l-0.033,0
				L-8.073-7.866z"/>
		</g>
		<g transform="matrix(260.442,115.68,-115.68,260.442,1624.48,4869.25)">
			<path fill="#676360" d="M-7.759-8.704c0.025,0,0.04-0.012,0.04-0.034c0-0.018-0.008-0.026-0.025-0.03L-7.754-8.77
				c-0.009-0.002-0.011-0.006-0.011-0.011c0-0.006,0.005-0.01,0.013-0.01c0.007,0,0.016,0.004,0.021,0.008l0.01-0.018
				C-7.729-8.807-7.74-8.811-7.754-8.811c-0.023,0-0.035,0.013-0.035,0.032c0,0.018,0.009,0.026,0.024,0.03l0.009,0.002
				c0.009,0.002,0.012,0.005,0.012,0.012c0,0.007-0.005,0.012-0.016,0.012c-0.011,0-0.019-0.005-0.024-0.009l-0.008,0.019
				C-7.785-8.708-7.773-8.704-7.759-8.704z"/>
		</g>
		<g transform="matrix(268.546,95.3663,-95.3663,268.546,1778.56,4935.33)">
			<rect x="-7.596" y="-9.413" fill="#676360" width="0.025" height="0.103"/>
		</g>
		<g transform="matrix(275.209,73.9728,-73.9728,275.209,1871,4968.71)">
			<path fill="#676360" d="M-7.116-9.903l0.025,0l0-0.084l0.023,0l0.002-0.02H-7.14v0.02h0.024L-7.116-9.903z"/>
		</g>
		<g transform="matrix(281.562,43.9805,-43.9805,281.562,2045.23,5013.96)">
			<path fill="#676360" d="M-6.544-10.666l0.025,0l0-0.042l0.029-0.061l-0.026,0l-0.015,0.037l-0.015-0.037h-0.027l0.029,0.062
				L-6.544-10.666z"/>
		</g>
		<g transform="matrix(284.972,-1.58154,1.58154,284.972,2309.21,5047.14)">
			<path fill="#676360" d="M-5.524-11.7c-0.012,0-0.017-0.008-0.017-0.035c0-0.024,0.004-0.034,0.017-0.034
				c0.012,0,0.017,0.009,0.017,0.034C-5.507-11.708-5.512-11.7-5.524-11.7z M-5.524-11.681c0.029,0,0.043-0.019,0.043-0.055
				c0-0.031-0.015-0.052-0.043-0.052c-0.029,0-0.044,0.022-0.044,0.055C-5.568-11.701-5.552-11.681-5.524-11.681z"/>
		</g>
		<g transform="matrix(283.063,-32.9674,32.9674,283.063,2520.16,5043.17)">
			<path fill="#676360" d="M-4.871-12.286h0.025v-0.043l0.028,0l0-0.019l-0.028,0l0-0.021l0.034,0l0.002-0.02l-0.06,0L-4.871-12.286
				z"/>
		</g>
		<g transform="matrix(275.209,-73.9728,73.9728,275.209,2753.31,5010.17)">
			<path fill="#676360" d="M-3.722-12.953l0.023,0l0-0.04c0-0.009,0-0.019-0.001-0.029c0.003,0.008,0.006,0.015,0.01,0.024
				l0.022,0.045l0.023,0l0-0.103l-0.023,0l0,0.039c0,0.008,0,0.019,0.001,0.028c-0.003-0.008-0.008-0.019-0.01-0.024l-0.021-0.044
				l-0.024,0L-3.722-12.953z"/>
		</g>
		<g transform="matrix(265.283,-104.099,104.099,265.283,2949.56,4954.79)">
			<path fill="#676360" d="M-2.866-13.347h0.062l0-0.02l-0.038,0l0-0.024h0.028l0-0.019l-0.028,0l0-0.02h0.034l0.002-0.02l-0.06,0
				V-13.347z"/>
		</g>
		<g transform="matrix(253.016,-131.128,131.128,253.016,3105.05,4893.14)">
			<path fill="#676360" d="M-1.935-13.686l0-0.024l0.01,0c0.009,0,0.013,0.003,0.013,0.011c0,0.008-0.005,0.013-0.012,0.013
				L-1.935-13.686z M-1.935-13.642l0-0.027h0.011c0.01,0,0.014,0.004,0.014,0.013c0,0.009-0.005,0.014-0.014,0.014H-1.935z
				 M-1.905-13.679c0.011-0.003,0.016-0.012,0.016-0.023c0-0.016-0.009-0.025-0.03-0.025h-0.04l0,0.103l0.037,0
				c0.025,0,0.037-0.011,0.037-0.03C-1.885-13.667-1.893-13.677-1.905-13.679z"/>
		</g>
		<g transform="matrix(236.65,-158.772,158.772,236.65,3274.16,4804.2)">
			<path fill="#676360" d="M-0.957-13.877l0-0.027l0.008,0c0.01,0,0.015,0.004,0.015,0.013c0,0.01-0.004,0.014-0.015,0.014
				L-0.957-13.877z M-0.981-13.819l0.025,0l0-0.041l0.003,0c0.006,0,0.008,0.001,0.011,0.008l0.012,0.033l0.027,0l-0.015-0.036
				c-0.003-0.006-0.006-0.011-0.012-0.012c0.014-0.003,0.021-0.011,0.021-0.027c0-0.02-0.014-0.029-0.039-0.029l-0.033,0
				L-0.981-13.819z"/>
		</g>
		<g transform="matrix(218.146,-183.369,183.369,218.146,3431.83,4697.07)">
			<path fill="#676360" d="M-0.003-13.927l0.006,0.024l0.026,0l-0.03-0.103l-0.026,0l-0.032,0.103l0.024,0l0.006-0.024
				L-0.003-13.927z M-0.025-13.943l0.003-0.01c0.002-0.008,0.005-0.02,0.007-0.028c0.001,0.008,0.004,0.02,0.006,0.028l0.002,0.01
				L-0.025-13.943z"/>
		</g>
		<g transform="matrix(197.495,-205.445,205.445,197.495,3578.23,4571.51)">
			<path fill="#676360" d="M0.876-13.885c0.025,0,0.04-0.012,0.04-0.034c0-0.018-0.008-0.026-0.025-0.03l-0.009-0.002
				c-0.009-0.002-0.011-0.006-0.011-0.011c0-0.006,0.005-0.01,0.013-0.01c0.007,0,0.016,0.004,0.021,0.008l0.01-0.018
				c-0.008-0.006-0.018-0.009-0.032-0.009c-0.023,0-0.035,0.013-0.035,0.032c0,0.018,0.009,0.026,0.024,0.03l0.009,0.002
				c0.009,0.002,0.012,0.005,0.012,0.012c0,0.007-0.005,0.012-0.016,0.012c-0.011,0-0.019-0.005-0.024-0.009l-0.008,0.019
				C0.851-13.89,0.862-13.885,0.876-13.885z"/>
		</g>
		<g transform="matrix(173.503,-226.072,226.072,173.503,3700.82,4442.76)">
			<path fill="#676360" d="M1.878-13.82l0-0.047l-0.025,0l0,0.103l0.025,0l0-0.053l0.026,0.053l0.029,0l-0.029-0.055l0.028-0.048
				H1.905L1.878-13.82z"/>
		</g>
		<g transform="matrix(148.945,-242.955,242.955,148.945,3813.47,4294.75)">
			<path fill="#676360" d="M2.776-13.575l0.006,0.024l0.026,0l-0.03-0.103l-0.026,0l-0.032,0.103l0.024,0l0.006-0.024L2.776-13.575z
				 M2.755-13.592l0.003-0.01c0.002-0.008,0.005-0.02,0.007-0.028c0.001,0.008,0.004,0.02,0.006,0.028l0.002,0.01L2.755-13.592z"/>
		</g>
	</g>
	<g transform="matrix(-103.768,-374.236,393.766,-98.045,-4677.47,2953.41)">
		<path fill="#676360" d="M7.919,0.488c0.017,0,0.029-0.013,0.029-0.029c0-0.016-0.012-0.029-0.029-0.029
			c-0.017,0-0.029,0.013-0.029,0.029C7.89,0.475,7.902,0.488,7.919,0.488z"/>
	</g>
	<g transform="matrix(-103.875,374.209,-393.738,-98.1464,-746.27,2769.26)">
		<path fill="#676360" d="M-4.597,11.277c0.017,0,0.029-0.013,0.029-0.029c0-0.016-0.012-0.029-0.029-0.029
			c-0.017,0-0.029,0.013-0.029,0.029C-4.627,11.264-4.614,11.277-4.597,11.277z"/>
	</g>
</g>
<g>
	<g transform="matrix(1,0,0,1,-4592.54,-703.874)">
		<path fill="#676360" d="M4846.402,1221.36l26.58,58.261l96.88,41.325l38.083-87.783c0,0-24.313,28.619-64.964,25.155
			C4902.333,1254.853,4893,1218.514,4846.402,1221.36z"/>
	</g>
	<g transform="matrix(1,0,0,1,-4592.54,-703.874)">
		<path fill="#676360" d="M5014.848,1226.265c0,0,36.069-44.972,93.217-15.924c0,0-19.144,35.546-31.286,45.875L5014.848,1226.265z"
			/>
	</g>
	<g transform="matrix(1,0,0,1,-4592.54,-703.874)">
		<path fill="#676360" d="M5016.54,1237.492l53.846,26.063c0,0-51.34,50.774-91.182,59.229L5016.54,1237.492z"/>
	</g>
	<g transform="matrix(1,0,0,1,-4592.54,-703.874)">
		<path fill="#676360" d="M4869.972,1289.137l91.725,38.854c0,0-70.949,22.103-138.372-4.262L4869.972,1289.137z"/>
	</g>
	<g transform="matrix(1,0,0,1,60.7838,-732.56)">
		<path fill="#676360" d="M182.713,1249.784l26.953,61.444l-49.718,37.318c0,0-44.116-15.627-71.187-42.136
			c0,0,13.219-2.984,29.114-15.042C133.771,1279.311,149.253,1252.353,182.713,1249.784z"/>
	</g>
	<g transform="matrix(1,0,0,1,-4592.54,-703.874)">
		<path fill="#676360" d="M4670.374,1159.028c0,0-33.613-114.151,42.954-205.986c0,0,65.608-90.938,185.904-89.876
			c0,0,107.475-7.911,184.243,89.815c0,0,91.462,96.745,31.666,243.604c0,0-23.437-22.022-53.052-21.377
			c-29.614,0.645-34.674,9.107-41.134,12.77c0,0-26.179,19.112-36.88,21.659c0,0-18.278,5.745-33.116,2.831
			c-10.466-2.057-16.081-2.223-29.753-9.896c-13.672-7.675-30.38-25.195-36.275-30.95c-6.371-6.22-18.81-14.411-27.166-16.189
			c-9.504-2.022-26.186-6.49-52.084,6.166c0,0-10.135,4.119-25.016,16.374c-14.879,12.255-25.926,14.415-38.581,14.582
			C4729.431,1192.72,4699.637,1197.596,4670.374,1159.028z M5075.16,1044.139v-10.793c0-4.154-0.351-7.921-1.051-11.301
			c-0.7-3.381-1.895-6.556-3.586-9.526c-1.689-2.97-3.875-5.458-6.555-7.461c-2.681-2.004-6.098-3.574-10.252-4.709
			c-4.152-1.135-8.958-1.703-14.416-1.703c-6.857,0-12.714,0.906-17.566,2.716c-4.854,1.812-8.694,4.504-11.52,8.079
			c-2.824,3.574-4.878,7.75-6.156,12.532c-1.281,4.78-1.92,10.432-1.92,16.952v43.394c0,6.471,0.639,12.097,1.92,16.879
			c1.278,4.781,3.332,8.958,6.156,12.533c2.825,3.574,6.665,6.267,11.52,8.077c4.853,1.811,10.709,2.716,17.566,2.716
			c5.458,0,10.264-0.604,14.416-1.81c4.154-1.208,7.571-2.839,10.252-4.891c2.68-2.053,4.865-4.601,6.555-7.644
			c1.691-3.041,2.886-6.266,3.586-9.67c0.7-3.405,1.051-7.209,1.051-11.411v-10.721h-28.904v13.764c0,1.739-0.049,3.128-0.146,4.167
			s-0.351,2.258-0.76,3.658c-0.411,1.401-1.123,2.452-2.138,3.152c-1.014,0.7-2.317,1.05-3.912,1.05
			c-1.256,0-2.354-0.254-3.296-0.761c-0.941-0.508-1.654-1.135-2.138-1.884c-0.481-0.748-0.869-1.714-1.158-2.897
			c-0.29-1.183-0.471-2.245-0.543-3.187c-0.073-0.942-0.108-2.042-0.108-3.297v-59.114c0-1.255,0.035-2.341,0.108-3.26
			c0.072-0.917,0.241-1.979,0.507-3.187c0.266-1.208,0.64-2.174,1.123-2.897c0.482-0.726,1.194-1.353,2.137-1.884
			s2.065-0.797,3.368-0.797c1.595,0,2.898,0.35,3.912,1.05c1.015,0.701,1.727,1.739,2.138,3.116c0.409,1.375,0.663,2.583,0.76,3.622
			s0.146,2.427,0.146,4.166v13.184H5075.16z M4790.386,1120.64v-120.11h-24.268v51.435l-21.951-51.435h-20.864v120.11h25.21v-56.505
			l21.807,56.505H4790.386z M4839.575,1120.64c8.21,0,14.985-0.688,20.322-2.064c5.336-1.377,9.597-3.671,12.786-6.882
			c3.187-3.212,5.421-7.147,6.7-11.81c1.28-4.66,1.92-10.563,1.92-17.711v-43.321c0-7.099-0.64-12.979-1.92-17.641
			c-1.279-4.66-3.513-8.584-6.7-11.771c-3.188-3.188-7.449-5.47-12.786-6.847c-5.337-1.375-12.135-2.063-20.393-2.063h-31.658
			v120.11H4839.575z M4986.563,1120.64l-1.957-120.11h-30.716l-12.17,61.793l-10.939-61.793h-32.02l-1.956,120.11h20.791
			l1.957-78.601l13.256,78.601h18.764l12.243-77.876l2.317,77.876H4986.563z M4840.01,1020.814c2.512,0,4.504,0.193,5.978,0.579
			c1.473,0.387,2.583,1.087,3.332,2.101c0.748,1.015,1.231,2.149,1.448,3.405c0.218,1.255,0.326,3.043,0.326,5.36v56.362
			c0,2.317-0.108,4.117-0.326,5.396c-0.217,1.28-0.7,2.453-1.448,3.515c-0.749,1.063-1.859,1.798-3.332,2.209
			c-1.474,0.411-3.466,0.615-5.978,0.615h-2.752v-79.542H4840.01z"/>
	</g>
</g>
</svg>
