<svg width="2384" height="2040" xmlns="http://www.w3.org/2000/svg" xmlns:xlink="http://www.w3.org/1999/xlink" xml:space="preserve" overflow="hidden"><g transform="translate(-1631 -137)"><g><path d="M1678.92 1353 1678.92 1353.78 1678.98 1354.51 1679.11 1355.29 1679.14 1355.43 1679.27 1356.08 1679.24 1355.94 1679.37 1356.72 1679.4 1356.86 1679.53 1357.51 1679.67 1358.05 1679.93 1358.83 1679.79 1358.29 1679.92 1358.94 1680.15 1359.73 1680.41 1360.38 1680.56 1360.71 1680.95 1361.49 1680.8 1361.15 1681.06 1361.8 1681.33 1362.36 1682.37 1364.18 1682.74 1364.73 1688.97 1372.65 1688.96 1372.63 1695.33 1380.82 1695.12 1380.53 1710.58 1404.04 1710.72 1404.25 1723.71 1421.79 1723.8 1421.89 1730.55 1430.47 1730.66 1430.6 1737.42 1438.53 1737.6 1438.73 1744.88 1446.27 1744.96 1446.35 1752.37 1453.63 1752.63 1453.86 1772.64 1470.62 1772.7 1470.68 1779.45 1476.13 1779.6 1476.24 1783.63 1479.23 1783.91 1479.43 1796.13 1487.09 1796.22 1487.15 1805.18 1492.48 1805.38 1492.59 1822.14 1501.42 1822.23 1501.47 1831.84 1506.27 1831.67 1506.18 1835.18 1508.13 1835.16 1508.12 1841.66 1511.76 1841.91 1511.89 1848.66 1515.14 1848.95 1515.26 1868.57 1523.06 1869.06 1523.22 1874.39 1524.65 1874.71 1524.73 1880.16 1525.77 1880.39 1525.8 1895.6 1527.88 1895.66 1527.89 1921.26 1531.01 1921.3 1531.01 1934.16 1532.44 1934.31 1532.46 1957.3 1534.27 1957.31 1534.28 1964.07 1534.8 1963.81 1534.77 1970.57 1535.68 1970.28 1535.63 1988.86 1539.4 1988.71 1539.36 1996.38 1541.18 1996.37 1541.18 2011.05 1544.69 2010.86 1544.64 2025.41 1548.8 2025.08 1548.69 2062.11 1562.46 2061.75 1562.31 2095.27 1578.29 2095 1578.15 2100.33 1581.14 2100.51 1581.24 2109.69 1585.86 2109.69 1585.86C2110.52 1586.28 2111.47 1586.41 2112.38 1586.24L2114.28 1585.9 2114.28 1585.9C2116.04 1585.57 2117.21 1583.88 2116.88 1582.11 2116.76 1581.47 2116.45 1580.87 2115.99 1580.41L2114.63 1579.04 2113.68 1578.32 2104.68 1573.34 2104.7 1573.34 2099.37 1570.36 2099.11 1570.22 2065.59 1554.24 2065.23 1554.09 2028.2 1540.32 2027.87 1540.21 2013.32 1536.05 2013.13 1536 1998.45 1532.49 1998.44 1532.49 1990.78 1530.67 1990.63 1530.64 1972.05 1526.88 1971.76 1526.83 1965.01 1525.92 1964.75 1525.89 1958 1525.37 1958.01 1525.37 1935.01 1523.55 1935.15 1523.57 1922.29 1522.14 1922.34 1522.14 1896.74 1519.02 1896.81 1519.03 1881.6 1516.95 1881.84 1516.99 1876.38 1515.95 1876.7 1516.03 1871.37 1514.6 1871.87 1514.76 1852.25 1506.96 1852.53 1507.09 1845.78 1503.84 1846.02 1503.97 1839.53 1500.33 1839.52 1500.32 1836.01 1498.38 1835.84 1498.29 1826.22 1493.48 1826.31 1493.52 1809.55 1484.69 1809.75 1484.8 1800.78 1479.47 1800.87 1479.53 1788.66 1471.86 1788.95 1472.06 1784.92 1469.07 1785.07 1469.18 1778.31 1463.73 1778.37 1463.78 1758.36 1447.02 1758.63 1447.26 1751.22 1439.98 1751.3 1440.06 1744.03 1432.53 1744.21 1432.73 1737.46 1424.81 1737.57 1424.94 1730.81 1416.37 1730.89 1416.47 1717.9 1398.93 1718.04 1399.14 1702.58 1375.62 1702.38 1375.33 1696.01 1367.15 1695.99 1367.13 1689.76 1359.2 1690.13 1359.75 1689.09 1357.93 1689.36 1358.49 1689.1 1357.84 1688.94 1357.5 1688.55 1356.72 1688.71 1357.06 1688.45 1356.41 1688.68 1357.19 1688.55 1356.54 1688.41 1356.01 1688.15 1355.23 1688.29 1355.76 1688.16 1355.11 1688.18 1355.25 1688.05 1354.47 1688.03 1354.33 1687.9 1353.68 1687.92 1353.82 1687.79 1353.05 1687.86 1353.78 1687.86 1353 1687.86 1353C1687.86 1350.53 1685.86 1348.53 1683.39 1348.53 1680.92 1348.53 1678.92 1350.53 1678.92 1353Z" fill="#000000" fill-rule="nonzero" fill-opacity="1"/><path d="M1893.6 1100.87 1893.99 1100.87 1891.99 1100.4 1892.25 1100.53 1892.25 1100.53C1892.88 1100.84 1893.56 1101 1894.25 1101L1894.64 1101 1892.64 1100.53 1892.9 1100.66 1893.49 1100.9 1893.88 1101.03 1895.29 1101.26 1895.55 1101.26 1894.14 1101.03 1894.53 1101.16 1893.94 1100.92 1894.2 1101.05 1894.46 1101.18 1893.98 1100.9 1894.37 1101.16 1894.85 1101.44 1895.11 1101.57 1895.37 1101.7 1894.21 1100.86 1894.47 1101.12 1895.63 1101.96 1895.89 1102.09 1894.73 1101.25 1894.99 1101.51 1895.25 1101.77 1895.51 1102.03 1895.77 1102.29 1894.93 1101.13 1895.06 1101.39 1895.9 1102.55 1896.16 1102.81 1895.32 1101.65 1895.45 1101.91 1895.73 1102.39 1896.25 1103.17 1895.89 1102.51 1899.53 1110.69 1899.45 1110.51 1900.62 1113.49 1900.61 1113.47 1917.11 1156.47 1917.11 1156.47 1917.76 1158.16 1917.63 1157.79 1918.15 1159.6 1918.18 1159.69 1918.7 1161.38 1918.6 1161 1918.99 1162.82 1919.38 1164.64 1919.32 1164.34 1919.58 1166.16 1919.55 1165.8 1919.81 1169.96 1919.8 1169.61 1919.54 1185.46 1919.54 1185.36 1919.15 1195.23 1919.15 1195.41 1919.15 1207.23 1919.15 1207.27 1919.28 1221.3 1919.29 1220.96 1917.21 1252.28 1917.21 1252.23 1915.65 1272.5 1915.64 1272.66 1915.38 1279.02 1915.39 1278.93 1915 1285.3 1915.05 1284.84 1912.19 1302.12 1912.23 1301.92 1905.21 1334.92 1905.24 1334.82 1903.03 1344.18 1902.96 1344.53 1898.8 1371.82 1898.78 1371.98 1898.13 1377.7 1898.19 1377.34 1895.72 1389.81 1895.75 1389.65 1894.71 1394.07 1894.68 1394.19 1893.78 1398.61 1893.73 1398.88 1893.08 1403.43 1893.05 1403.71 1892.27 1413.58 1892.25 1413.94 1892.38 1476.56 1892.42 1477.11 1892.68 1479.19 1892.94 1481.27 1892.98 1481.54 1893.37 1483.61 1893.38 1483.67 1893.77 1485.62 1893.82 1485.82 1894.34 1487.9 1894.43 1488.23 1895.08 1490.18 1895.17 1490.43 1895.95 1492.38 1896.04 1492.59 1898.38 1497.66 1898.26 1497.36 1902.29 1508.02 1902.26 1507.95 1902.96 1509.89 1902.88 1509.63 1903.45 1511.56 1903.62 1512.05 1904.45 1513.98 1904.51 1514.11 1906.5 1518.38 1906.5 1518.38C1906.92 1519.27 1907.63 1519.99 1908.51 1520.41L1910.12 1521.19 1910.12 1521.19C1911.74 1521.96 1913.68 1521.28 1914.46 1519.67 1914.71 1519.14 1914.82 1518.55 1914.77 1517.97L1914.61 1516.19 1914.26 1514.85 1912.36 1510.54 1912.46 1510.78 1911.72 1508.81 1911.88 1509.32 1911.41 1507.36 1911.34 1507.09 1910.74 1505.13 1910.64 1504.86 1906.61 1494.2 1906.49 1493.91 1904.15 1488.84 1904.25 1489.06 1903.47 1487.11 1903.56 1487.36 1902.91 1485.41 1903 1485.74 1902.48 1483.66 1902.53 1483.86 1902.14 1481.92 1902.15 1481.97 1901.76 1479.89 1901.8 1480.16 1901.54 1478.08 1901.28 1476 1901.32 1476.55 1901.19 1413.92 1901.17 1414.28 1901.95 1404.41 1901.92 1404.69 1902.57 1400.14 1902.52 1400.41 1903.43 1395.99 1903.41 1396.12 1904.45 1391.7 1904.48 1391.54 1906.95 1379.07 1907 1378.71 1907.65 1372.99 1907.63 1373.16 1911.79 1345.88 1911.72 1346.23 1913.93 1336.88 1913.95 1336.78 1920.97 1303.78 1921 1303.58 1923.86 1286.3 1923.91 1285.84 1924.3 1279.48 1924.31 1279.39 1924.57 1273.02 1924.56 1273.18 1926.12 1252.91 1926.12 1252.87 1928.2 1221.56 1928.21 1221.22 1928.08 1207.19 1928.08 1207.23 1928.08 1195.41 1928.08 1195.58 1928.47 1185.71 1928.47 1185.6 1928.73 1169.75 1928.72 1169.4 1928.46 1165.24 1928.43 1164.89 1928.17 1163.07 1928.11 1162.77 1927.72 1160.95 1927.33 1159.13 1927.23 1158.75 1926.71 1157.06 1926.74 1157.15 1926.22 1155.33 1926.09 1154.96 1925.44 1153.27 1925.45 1153.27 1908.95 1110.27 1908.93 1110.24 1907.77 1107.25 1907.69 1107.06 1904.05 1098.88 1903.68 1098.22 1903.16 1097.44 1903.44 1097.92 1903.31 1097.66 1902.48 1096.5 1902.22 1096.24 1903.05 1097.4 1902.92 1097.14 1902.09 1095.98 1901.83 1095.72 1901.57 1095.46 1901.31 1095.2 1901.05 1094.94 1899.89 1094.1 1899.63 1093.97 1900.79 1094.81 1900.53 1094.55 1899.37 1093.71 1899.11 1093.58 1898.85 1093.45 1899.33 1093.73 1898.94 1093.47 1898.46 1093.19 1898.2 1093.06 1897.94 1092.93 1897.35 1092.69 1896.96 1092.56 1895.55 1092.33 1895.29 1092.33 1896.7 1092.56 1896.31 1092.43 1896.9 1092.67 1896.64 1092.54 1896.64 1092.54C1896.02 1092.23 1895.34 1092.07 1894.64 1092.07L1894.25 1092.07 1896.25 1092.54 1895.99 1092.41 1895.99 1092.41C1895.37 1092.1 1894.69 1091.94 1893.99 1091.94L1893.6 1091.94 1893.6 1091.94C1891.14 1091.94 1889.14 1093.94 1889.14 1096.41 1889.14 1098.87 1891.14 1100.87 1893.6 1100.87Z" fill="#000000" fill-rule="nonzero" fill-opacity="1"/><path d="M2372.44 1042.83 2372.57 1049.85 2372.57 1049.76 2372.57 1061.46 2372.58 1061.15 2370.51 1091.42 2370.55 1091.03 2367.95 1107.53 2367.95 1107.57 2362.62 1143.17 2362.62 1143.16 2361.45 1150.96 2361.52 1150.6 2357.75 1166.58 2357.76 1166.55 2355.68 1175.13 2355.71 1175 2354.93 1177.86 2354.88 1178.09 2352.8 1187.71 2352.84 1187.54 2350.37 1197.15 2350.43 1196.92 2347.45 1206.41 2347.55 1206.12 2338.97 1227.94 2339.04 1227.79 2327.08 1255.2 2327 1255.4 2323.89 1263.58 2323.93 1263.47 2320.55 1271.65 2320.67 1271.39 2316.78 1279.31 2316.92 1279.05 2305.87 1298.15 2306.02 1297.9 2290.17 1321.68 2290.2 1321.64 2267.99 1354.12 2267.94 1354.19 2237.79 1400.32 2237.84 1400.25 2223.81 1420.91 2223.83 1420.88 2205.12 1447.9 2205.26 1447.71 2201.23 1452.9 2201.27 1452.85 2185.94 1472.08 2185.87 1472.18 2171.45 1491.27 2171.43 1491.3 2155.84 1512.21 2155.76 1512.33 2134.06 1543.51 2134.01 1543.59 2117.38 1568.53 2117.18 1568.87 2108.73 1584.33 2108.7 1584.38 2102.86 1595.42 2102.74 1595.66 2097.93 1606.18 2097.81 1606.49 2096.9 1608.96 2095.99 1611.43 2096.18 1610.98 2095.01 1613.31 2095.16 1613.05 2091.26 1619.67 2091.37 1619.49 2089.16 1622.87 2089.12 1622.94 2086.91 1626.44 2086.79 1626.65 2084.84 1630.16 2084.75 1630.33 2082.93 1633.97 2082.82 1634.2 2079.58 1641.74 2079.43 1642.11 2071.64 1665.89 2071.62 1665.93 2065.91 1683.99 2065.88 1684.07 2051.85 1731.36 2051.78 1731.64 2049.31 1742.56 2049.29 1742.67 2048.25 1747.86 2048.32 1747.54 2045.21 1758.71 2045.23 1758.64 2043.8 1763.45 2043.74 1763.67 2042.57 1768.47 2042.52 1768.72 2041.61 1773.66 2041.57 1773.93 2040.01 1786.79 2040 1786.84 2038.57 1799.83 2038.63 1799.47 2036.03 1812.85 2036.05 1812.74 2034.88 1818.07 2034.86 1818.19 2033.82 1823.65 2033.76 1824.05 2032.46 1837.43 2032.45 1837.51 2032.06 1842.31 2032.09 1842.09 2031.44 1847.03 2031.48 1846.77 2029.14 1858.98 2029.17 1858.83 2028.13 1863.38 2028.1 1863.52 2027.2 1868.19 2027.16 1868.43 2026.51 1873.11 2026.48 1873.35 2025.7 1882.71 2025.68 1883.06 2025.55 1910.73 2025.55 1910.78 2025.94 1975.22 2025.97 1975.68 2026.62 1981.65 2026.66 1981.95 2029.78 1999.61 2029.8 1999.72 2032.4 2012.59 2032.41 2012.65 2040.08 2047.86 2040.1 2047.96 2044.65 2066.8 2044.7 2066.98 2047.17 2075.56 2047.23 2075.75 2050.08 2084.2 2050.22 2084.56 2060.23 2107.42 2060.42 2107.82 2069.82 2124.61 2069.82 2124.61C2070.18 2125.24 2070.68 2125.77 2071.3 2126.15L2073.26 2127.36 2073.26 2127.36C2074.79 2128.31 2076.79 2127.84 2077.73 2126.31 2078.16 2125.62 2078.32 2124.79 2078.16 2123.99L2077.73 2121.73 2077.31 2120.52 2068.26 2103.53 2068.41 2103.84 2058.41 2080.98 2058.55 2081.34 2055.69 2072.89 2055.75 2073.09 2053.28 2064.51 2053.33 2064.7 2048.78 2045.86 2048.8 2045.96 2041.14 2010.75 2041.15 2010.82 2038.55 1997.95 2038.58 1998.06 2035.46 1980.39 2035.5 1980.69 2034.85 1974.71 2034.88 1975.17 2034.49 1910.73 2034.49 1910.77 2034.62 1883.1 2034.6 1883.45 2035.38 1874.1 2035.35 1874.34 2036 1869.66 2035.96 1869.9 2036.87 1865.22 2036.84 1865.37 2037.88 1860.82 2037.91 1860.66 2040.25 1848.45 2040.29 1848.19 2040.94 1843.26 2040.97 1843.03 2041.36 1838.23 2041.35 1838.3 2042.65 1824.92 2042.59 1825.32 2043.63 1819.86 2043.61 1819.99 2044.78 1814.66 2044.8 1814.55 2047.4 1801.17 2047.45 1800.81 2048.88 1787.82 2048.87 1787.86 2050.43 1775 2050.39 1775.27 2051.3 1770.34 2051.25 1770.58 2052.42 1765.78 2052.36 1765.99 2053.79 1761.19 2053.81 1761.11 2056.93 1749.94 2057.01 1749.62 2058.04 1744.42 2058.02 1744.53 2060.49 1733.62 2060.42 1733.9 2074.45 1686.61 2074.42 1686.69 2080.14 1668.63 2080.13 1668.67 2087.92 1644.9 2087.78 1645.27 2091.03 1637.74 2090.92 1637.97 2092.74 1634.33 2092.65 1634.5 2094.6 1630.99 2094.47 1631.2 2096.68 1627.69 2096.64 1627.76 2098.85 1624.38 2098.96 1624.2 2102.86 1617.58 2103 1617.31 2104.17 1614.97 2104.37 1614.52 2105.28 1612.05 2106.19 1609.58 2106.06 1609.89 2110.87 1599.37 2110.75 1599.6 2116.6 1588.56 2116.57 1588.61 2125.01 1573.15 2124.81 1573.49 2141.44 1548.54 2141.39 1548.61 2163.09 1517.43 2163 1517.55 2178.59 1496.63 2178.58 1496.66 2193 1477.56 2192.93 1477.65 2208.26 1458.42 2208.29 1458.37 2212.32 1453.18 2212.46 1452.98 2231.17 1425.96 2231.19 1425.93 2245.23 1405.27 2245.27 1405.2 2275.41 1359.08 2275.36 1359.16 2297.58 1326.68 2297.61 1326.63 2313.46 1302.86 2313.61 1302.62 2324.65 1283.52 2324.79 1283.25 2328.69 1275.33 2328.81 1275.06 2332.19 1266.88 2332.23 1266.76 2335.35 1258.58 2335.27 1258.77 2347.22 1231.36 2347.29 1231.21 2355.86 1209.38 2355.96 1209.09 2358.95 1199.61 2359.02 1199.37 2361.49 1189.76 2361.53 1189.59 2363.61 1179.98 2363.55 1180.21 2364.33 1177.35 2364.36 1177.23 2366.44 1168.65 2366.45 1168.63 2370.21 1152.65 2370.28 1152.28 2371.45 1144.49 2371.45 1144.49 2376.78 1108.89 2376.77 1108.92 2379.37 1092.42 2379.42 1092.03 2381.5 1061.76 2381.51 1061.46 2381.51 1049.76 2381.5 1049.68 2381.38 1042.67 2381.38 1042.67C2381.33 1040.2 2379.29 1038.24 2376.83 1038.28 2374.36 1038.33 2372.4 1040.36 2372.44 1042.83Z" fill="#000000" fill-rule="nonzero" fill-opacity="1"/><path d="M2045.56 969.732 2045.56 1043.27 2045.57 1043.55 2045.83 1047.7 2045.87 1048.05 2047.55 1060 2047.56 1060.02 2049.12 1070.68 2049.13 1070.79 2049.78 1074.56 2049.81 1074.7 2050.59 1078.47 2050.66 1078.75 2052.74 1086.29 2052.72 1086.21 2055.58 1097.38 2055.57 1097.38 2057.26 1104 2057.33 1104.24 2059.41 1110.86 2059.51 1111.14 2066.26 1128.55 2066.28 1128.61 2069.27 1136.01 2069.18 1135.76 2075.55 1154.73 2075.53 1154.68 2076.83 1158.71 2076.87 1158.83 2078.3 1162.86 2078.44 1163.21 2082.73 1172.69 2082.72 1172.68 2086.1 1180.21 2085.99 1179.96 2094.83 1203.47 2094.83 1203.47 2096 1206.59 2096.15 1206.95 2100.44 1215.91 2100.45 1215.94 2103.18 1221.53 2103.03 1221.2 2119.79 1264.07 2119.75 1263.97 2124.56 1277.22 2124.64 1277.41 2125.94 1280.53 2126.1 1280.88 2127.66 1283.87 2129.22 1286.86 2129.48 1287.3 2134.16 1294.19 2134.08 1294.06 2139.67 1302.9 2139.57 1302.74 2146.98 1315.6 2147 1315.64 2153.88 1327.33 2153.74 1327.06 2165.95 1351.49 2165.74 1351 2180.68 1392.7 2180.66 1392.65 2189.37 1417.98 2189.34 1417.9 2192.07 1426.35 2192.11 1426.47 2197.05 1440.37 2196.98 1440.16 2200.03 1450.36 2200.03 1450.36C2200.29 1451.24 2200.83 1452.01 2201.56 1452.55L2203.08 1453.69 2203.08 1453.69C2204.51 1454.77 2206.55 1454.47 2207.62 1453.04 2208.01 1452.52 2208.23 1451.91 2208.27 1451.27L2208.37 1449.38 2208.24 1448.08 2205.58 1437.76 2205.46 1437.38 2200.53 1423.48 2200.57 1423.6 2197.84 1415.16 2197.81 1415.08 2189.11 1389.75 2189.09 1389.69 2174.15 1347.99 2173.94 1347.49 2161.73 1323.07 2161.58 1322.8 2154.7 1311.11 2154.72 1311.15 2147.31 1298.28 2147.22 1298.12 2141.63 1289.29 2141.55 1289.17 2136.87 1282.28 2137.14 1282.73 2135.58 1279.74 2134.02 1276.75 2134.18 1277.1 2132.88 1273.98 2132.96 1274.17 2128.15 1260.92 2128.11 1260.82 2111.35 1217.95 2111.21 1217.61 2108.48 1212.02 2108.49 1212.06 2104.21 1203.09 2104.36 1203.45 2103.19 1200.33 2103.19 1200.33 2094.35 1176.82 2094.25 1176.56 2090.87 1169.02 2090.86 1169.01 2086.58 1159.53 2086.72 1159.87 2085.29 1155.85 2085.33 1155.97 2084.03 1151.94 2084.01 1151.89 2077.65 1132.92 2077.56 1132.67 2074.57 1125.27 2074.59 1125.32 2067.83 1107.91 2067.93 1108.19 2065.85 1101.56 2065.92 1101.8 2064.23 1095.17 2064.23 1095.17 2061.37 1084 2061.35 1083.91 2059.27 1076.38 2059.34 1076.66 2058.56 1072.89 2058.59 1073.04 2057.94 1069.27 2057.95 1069.39 2056.4 1058.73 2056.4 1058.75 2054.71 1046.8 2054.75 1047.15 2054.49 1042.99 2054.49 1043.27 2054.49 969.732 2054.49 969.733C2054.49 967.266 2052.49 965.267 2050.03 965.267 2047.56 965.267 2045.56 967.266 2045.56 969.733Z" fill="#000000" fill-rule="nonzero" fill-opacity="1"/><path d="M2459.1 1496.3 2459.1 1500.2 2459.1 1500.09 2458.32 1532.57 2458.34 1532.32 2457.82 1538.68 2457.84 1538.49 2457.06 1544.73 2457.1 1544.46 2455.93 1550.7 2455.97 1550.49 2452.86 1563.61 2453 1563.14 2426.75 1636.54 2426.84 1636.32 2424.11 1642.81 2424.2 1642.61 2421.21 1648.85 2421.31 1648.65 2417.94 1654.89 2418.01 1654.76 2414.5 1660.73 2414.67 1660.47 2406.48 1672.42 2406.55 1672.34 2397.19 1685.33 2397.29 1685.2 2357.92 1736 2358.3 1735.57 2292.04 1801.31 2292.15 1801.2 2257.46 1833.42 2257.77 1833.16 2219.71 1862.52 2219.74 1862.49 2189.08 1885.62 2189.08 1885.62 2164.27 1904.33 2164.23 1904.36 2132.4 1928.91 2132.28 1929.01 2122.54 1937.06 2122.63 1936.98 2118.48 1940.23 2118.35 1940.33 2114.33 1943.71 2114 1944.01 2103.09 1955.18 2103.01 1955.27 2093.26 1965.79 2093.46 1965.6 2090.6 1968.32 2090.45 1968.48 2087.85 1971.2 2087.71 1971.35 2085.11 1974.34 2084.87 1974.65 2078.37 1983.62 2078.11 1984.02 2072.91 1993.11 2072.98 1993 2058.95 2016 2059.17 2015.67 2057.62 2017.76 2057.45 2018.01 2056.04 2020.23 2056.04 2020.23 2054.62 2022.45 2054.47 2022.7 2053.19 2025.05 2053.1 2025.22 2051.94 2027.57 2051.94 2027.57 2050.79 2029.91 2050.6 2030.36 2049.71 2032.83 2049.71 2032.83 2048.81 2035.3 2048.73 2035.56 2047.97 2038.16 2047.93 2038.3 2047.29 2040.78 2047.24 2041.03 2046.74 2043.63 2046.7 2043.82 2045.94 2049.02 2045.94 2049.02C2045.84 2049.7 2045.91 2050.39 2046.13 2051.03L2046.96 2053.43 2046.96 2053.43C2047.54 2055.12 2049.39 2056.02 2051.09 2055.44 2051.93 2055.15 2052.61 2054.52 2052.98 2053.72L2054.04 2051.41 2054.37 2050.28 2055.17 2045.09 2055.13 2045.31 2055.67 2042.71 2055.61 2042.96 2056.27 2040.5 2056.23 2040.64 2057.03 2038.05 2056.94 2038.3 2057.87 2035.84 2057.87 2035.84 2058.79 2033.37 2058.6 2033.82 2059.78 2031.48 2059.78 2031.48 2060.96 2029.15 2060.87 2029.32 2062.19 2026.99 2062.03 2027.25 2063.48 2025.05 2063.48 2025.05 2064.92 2022.85 2064.74 2023.1 2066.32 2021.03 2066.57 2020.65 2080.6 1997.66 2080.67 1997.55 2085.87 1988.45 2085.6 1988.86 2092.1 1979.89 2091.85 1980.2 2094.45 1977.21 2094.32 1977.36 2096.92 1974.64 2096.77 1974.79 2099.62 1972.06 2099.82 1971.86 2109.56 1961.34 2109.48 1961.42 2120.39 1950.25 2120.07 1950.55 2124.09 1947.17 2123.97 1947.27 2128.13 1944.02 2128.23 1943.95 2137.97 1935.89 2137.85 1935.98 2169.68 1911.43 2169.65 1911.46 2194.46 1892.75 2194.46 1892.75 2225.12 1869.62 2225.16 1869.6 2263.23 1840.23 2263.54 1839.97 2298.23 1807.75 2298.33 1807.65 2364.59 1741.91 2364.98 1741.47 2404.35 1690.67 2404.44 1690.55 2413.79 1677.55 2413.85 1677.47 2422.04 1665.52 2422.21 1665.25 2425.71 1659.28 2425.79 1659.14 2429.17 1652.91 2429.27 1652.71 2432.26 1646.47 2432.35 1646.27 2435.07 1639.78 2435.16 1639.55 2461.41 1566.15 2461.55 1565.67 2464.66 1552.55 2464.71 1552.34 2465.88 1546.11 2465.92 1545.84 2466.7 1539.6 2466.72 1539.41 2467.24 1533.04 2467.25 1532.79 2468.03 1500.31 2468.03 1500.2 2468.03 1496.3C2468.03 1493.84 2466.03 1491.84 2463.57 1491.84 2461.1 1491.84 2459.1 1493.84 2459.1 1496.3 2459.1 1496.3 2459.1 1496.3 2459.1 1496.3Z" fill="#000000" fill-rule="nonzero" fill-opacity="1"/><path d="M1690.17 1752.6 1692.12 1754.81 1691.95 1754.6 1693.77 1756.94 1693.7 1756.85 1695.51 1759.31 1695.29 1758.98 1699.71 1766.26 1699.7 1766.25 1704.25 1773.78 1704.33 1773.91 1710.56 1783.52 1710.54 1783.49 1715.09 1790.63 1715.21 1790.81 1720.14 1797.82 1720.3 1798.04 1732.13 1812.85 1732.46 1813.22 1756.63 1837.39 1756.65 1837.41 1775.49 1855.99 1775.69 1856.17 1779.72 1859.68 1779.82 1859.77 1784.11 1863.28 1784.24 1863.38 1788.53 1866.63 1788.89 1866.88 1802.01 1874.93 1802.02 1874.94 1809.69 1879.62 1809.84 1879.71 1821.54 1886.2 1821.76 1886.32 1833.84 1892.17 1834.13 1892.29 1867.65 1905.68 1867.76 1905.72 1884.65 1911.95 1884.76 1911.99 1890.47 1913.94 1890.83 1914.05 1892.39 1914.44 1891.95 1914.3 1893.38 1914.82 1893.49 1914.86 1895.05 1915.38 1894.61 1915.21 1896.04 1915.86 1897.47 1916.51 1897.02 1916.27 1898.32 1917.05 1898.26 1917.02 1902.03 1919.35 1901.65 1919.09 1905.68 1922.21 1905.73 1922.25 1909.89 1925.37 1909.7 1925.22 1913.73 1928.6 1913.47 1928.36 1921.39 1936.15 1921.37 1936.13 1924.22 1938.98 1924.48 1939.22 1932.66 1946.23 1932.71 1946.27 1940.5 1952.77 1940.16 1952.46 1945.23 1957.65 1945.07 1957.48 1946.89 1959.56 1947.09 1959.77 1948.91 1961.59 1949.16 1961.82 1953.71 1965.72 1953.92 1965.89 1960.29 1970.7 1960.38 1970.77 1984.16 1987.79 1984.5 1988.01 1988.27 1990.22 1988.37 1990.28 1992.13 1992.36 1992.29 1992.44 1996.19 1994.39 1996.41 1994.49 2000.31 1996.18 2000.65 1996.31 2012.08 2000.21 2012.32 2000.28 2023.29 2003.34 2023.29 2003.34C2024.02 2003.54 2024.8 2003.54 2025.54 2003.35L2027.74 2002.76 2027.74 2002.76C2029.47 2002.29 2030.5 2000.51 2030.04 1998.78 2029.83 1998 2029.34 1997.33 2028.67 1996.89L2026.75 1995.65 2025.72 1995.16 2014.87 1991.72 2014.96 1991.75 2003.53 1987.86 2003.86 1987.98 1999.96 1986.3 2000.19 1986.4 1996.29 1984.45 1996.45 1984.53 1992.68 1982.46 1992.78 1982.51 1989.01 1980.3 1989.36 1980.53 1965.58 1963.51 1965.67 1963.57 1959.31 1958.77 1959.52 1958.94 1954.97 1955.04 1955.22 1955.28 1953.41 1953.46 1953.61 1953.67 1951.79 1951.59 1951.63 1951.42 1946.56 1946.22 1946.22 1945.91 1938.43 1939.41 1938.47 1939.45 1930.29 1932.44 1930.54 1932.67 1927.68 1929.81 1927.66 1929.78 1919.73 1921.99 1919.47 1921.75 1915.44 1918.37 1915.25 1918.22 1911.09 1915.1 1911.15 1915.15 1907.12 1912.03 1906.74 1911.76 1902.97 1909.43 1902.92 1909.39 1901.62 1908.61 1901.17 1908.38 1899.74 1907.73 1898.31 1907.08 1897.87 1906.9 1896.31 1906.39 1896.43 1906.42 1895 1905.91 1894.56 1905.77 1893 1905.38 1893.35 1905.49 1887.64 1903.54 1887.74 1903.57 1870.85 1897.34 1870.96 1897.38 1837.44 1884 1837.73 1884.13 1825.65 1878.28 1825.87 1878.4 1814.18 1871.9 1814.34 1871.99 1806.67 1867.31 1806.68 1867.32 1793.56 1859.26 1793.92 1859.51 1789.63 1856.26 1789.77 1856.37 1785.48 1852.86 1785.58 1852.95 1781.56 1849.44 1781.76 1849.63 1762.92 1831.05 1762.94 1831.07 1738.78 1806.91 1739.11 1807.28 1727.29 1792.47 1727.45 1792.68 1722.51 1785.67 1722.63 1785.84 1718.08 1778.69 1718.06 1778.66 1711.82 1769.05 1711.9 1769.17 1707.35 1761.63 1707.35 1761.62 1702.93 1754.35 1702.71 1754.02 1700.89 1751.55 1700.82 1751.46 1699 1749.12 1698.82 1748.9 1696.87 1746.69 1696.87 1746.69C1695.24 1744.85 1692.42 1744.67 1690.57 1746.3 1688.72 1747.93 1688.54 1750.75 1690.17 1752.6 1690.17 1752.6 1690.17 1752.6 1690.17 1752.6Z" fill="#000000" fill-rule="nonzero" fill-opacity="1"/><path d="M2272.41 1579.84 2272.54 1582.05 2272.56 1582.31 2272.82 1584.52 2272.86 1584.78 2273.25 1586.98 2273.3 1587.23 2273.82 1589.44 2273.89 1589.69 2275.71 1595.8 2275.69 1595.75 2276.47 1598.48 2276.41 1598.24 2278.36 1606.82 2278.28 1606.36 2279.06 1612.85 2279.04 1612.63 2279.3 1616.4 2279.33 1616.7 2279.85 1620.47 2279.88 1620.64 2280.53 1624.28 2280.59 1624.58 2283.06 1634.45 2283.14 1634.72 2288.2 1650.7 2288.23 1650.77 2295.5 1672.47 2295.66 1672.87 2312.94 1711.46 2313.02 1711.63 2314.71 1715.01 2314.85 1715.26 2316.67 1718.38 2316.81 1718.61 2318.89 1721.73 2318.94 1721.8 2321.01 1724.79 2321.16 1724.99 2323.5 1727.98 2323.56 1728.05 2325.9 1730.91 2326.12 1731.16 2328.72 1733.89 2328.8 1733.97 2331.4 1736.57 2331.56 1736.72 2334.29 1739.19 2334.57 1739.43 2342.24 1745.28 2342.08 1745.15 2348.58 1750.6 2348.59 1750.61 2351.05 1752.66 2352.69 1753.51 2354.38 1753.96 2354.38 1753.96C2356.11 1754.42 2357.89 1753.39 2358.35 1751.65 2358.5 1751.11 2358.5 1750.53 2358.35 1749.99L2357.9 1748.3 2357.9 1748.3C2357.72 1747.62 2357.38 1746.99 2356.9 1746.48L2354.7 1744.13 2354.32 1743.77 2347.82 1738.31 2347.66 1738.17 2339.99 1732.33 2340.28 1732.57 2337.55 1730.1 2337.71 1730.25 2335.11 1727.65 2335.19 1727.73 2332.59 1725 2332.81 1725.25 2330.48 1722.4 2330.54 1722.47 2328.2 1719.48 2328.35 1719.69 2326.27 1716.7 2326.32 1716.77 2324.24 1713.65 2324.38 1713.88 2322.56 1710.76 2322.7 1711.01 2321.01 1707.64 2321.09 1707.81 2303.81 1669.22 2303.97 1669.63 2296.69 1647.93 2296.72 1648 2291.65 1632.02 2291.73 1632.29 2289.26 1622.41 2289.32 1622.71 2288.67 1619.07 2288.7 1619.25 2288.18 1615.48 2288.21 1615.78 2287.95 1612.02 2287.93 1611.79 2287.15 1605.29 2287.07 1604.84 2285.12 1596.26 2285.06 1596.03 2284.28 1593.3 2284.27 1593.25 2282.45 1587.14 2282.52 1587.39 2282 1585.19 2282.05 1585.43 2281.66 1583.22 2281.7 1583.48 2281.44 1581.27 2281.46 1581.53 2281.33 1579.32 2281.33 1579.32C2281.18 1576.86 2279.07 1574.98 2276.61 1575.12 2274.15 1575.27 2272.27 1577.38 2272.41 1579.84 2272.41 1579.84 2272.41 1579.84 2272.41 1579.84Z" fill="#000000" fill-rule="nonzero" fill-opacity="1"/><text fill="#000000" fill-opacity="1" font-family="Book Antiqua,Book Antiqua_MSFontService,sans-serif" font-style="normal" font-variant="normal" font-weight="400" font-stretch="normal" font-size="64" text-anchor="start" direction="ltr" writing-mode="lr-tb" unicode-bidi="normal" text-decoration="none" transform="matrix(1 0 0 1 1674.57 1489)">A</text><text fill="#000000" fill-opacity="1" font-family="Book Antiqua,Book Antiqua_MSFontService,sans-serif" font-style="normal" font-variant="normal" font-weight="400" font-stretch="normal" font-size="64" text-anchor="start" direction="ltr" writing-mode="lr-tb" unicode-bidi="normal" text-decoration="none" transform="matrix(1 0 0 1 1858.29 1251)">B</text><text fill="#000000" fill-opacity="1" font-family="Book Antiqua,Book Antiqua_MSFontService,sans-serif" font-style="normal" font-variant="normal" font-weight="400" font-stretch="normal" font-size="64" text-anchor="start" direction="ltr" writing-mode="lr-tb" unicode-bidi="normal" text-decoration="none" transform="matrix(1 0 0 1 1976.32 1604)">C</text><text fill="#000000" fill-opacity="1" font-family="Book Antiqua,Book Antiqua_MSFontService,sans-serif" font-style="normal" font-variant="normal" font-weight="400" font-stretch="normal" font-size="64" text-anchor="start" direction="ltr" writing-mode="lr-tb" unicode-bidi="normal" text-decoration="none" transform="matrix(1 0 0 1 2105 1170)">D</text><text fill="#000000" fill-opacity="1" font-family="Book Antiqua,Book Antiqua_MSFontService,sans-serif" font-style="normal" font-variant="normal" font-weight="400" font-stretch="normal" font-size="64" text-anchor="start" direction="ltr" writing-mode="lr-tb" unicode-bidi="normal" text-decoration="none" transform="matrix(1 0 0 1 2349.27 1307)">E</text><text fill="#000000" fill-opacity="1" font-family="Book Antiqua,Book Antiqua_MSFontService,sans-serif" font-style="normal" font-variant="normal" font-weight="400" font-stretch="normal" font-size="64" text-anchor="start" direction="ltr" writing-mode="lr-tb" unicode-bidi="normal" text-decoration="none" transform="matrix(1 0 0 1 2169.65 1556)">F</text><text fill="#000000" fill-opacity="1" font-family="Book Antiqua,Book Antiqua_MSFontService,sans-serif" font-style="normal" font-variant="normal" font-weight="400" font-stretch="normal" font-size="64" text-anchor="start" direction="ltr" writing-mode="lr-tb" unicode-bidi="normal" text-decoration="none" transform="matrix(1 0 0 1 2073.4 1764)">G</text><text fill="#000000" fill-opacity="1" font-family="Book Antiqua,Book Antiqua_MSFontService,sans-serif" font-style="normal" font-variant="normal" font-weight="400" font-stretch="normal" font-size="64" text-anchor="start" direction="ltr" writing-mode="lr-tb" unicode-bidi="normal" text-decoration="none" transform="matrix(1 0 0 1 1841.67 1854)">H</text><text fill="#000000" fill-opacity="1" font-family="Book Antiqua,Book Antiqua_MSFontService,sans-serif" font-style="normal" font-variant="normal" font-weight="400" font-stretch="normal" font-size="64" text-anchor="start" direction="ltr" writing-mode="lr-tb" unicode-bidi="normal" text-decoration="none" transform="matrix(1 0 0 1 2265.36 1915)">K</text><text fill="#000000" fill-opacity="1" font-family="Book Antiqua,Book Antiqua_MSFontService,sans-serif" font-style="normal" font-variant="normal" font-weight="400" font-stretch="normal" font-size="64" text-anchor="start" direction="ltr" writing-mode="lr-tb" unicode-bidi="normal" text-decoration="none" transform="matrix(1 0 0 1 2453.95 1667)">J</text><text fill="#000000" fill-opacity="1" font-family="Book Antiqua,Book Antiqua_MSFontService,sans-serif" font-style="normal" font-variant="normal" font-weight="400" font-stretch="normal" font-size="64" text-anchor="start" direction="ltr" writing-mode="lr-tb" unicode-bidi="normal" text-decoration="none" transform="matrix(1 0 0 1 2295.63 1621)">I</text><text fill="#000000" fill-opacity="1" font-family="Book Antiqua,Book Antiqua_MSFontService,sans-serif" font-style="normal" font-variant="normal" font-weight="400" font-stretch="normal" font-size="64" text-anchor="start" direction="ltr" writing-mode="lr-tb" unicode-bidi="normal" text-decoration="none" transform="matrix(1 0 0 1 2082.91 2120)">M</text><text fill="#000000" fill-opacity="1" font-family="Book Antiqua,Book Antiqua_MSFontService,sans-serif" font-style="normal" font-variant="normal" font-weight="400" font-stretch="normal" font-size="64" text-anchor="start" direction="ltr" writing-mode="lr-tb" unicode-bidi="normal" text-decoration="none" transform="matrix(1 0 0 1 1989.77 2061)">L</text><g><g><g><path d="M1985.72 585.893C2003.63 614.253 2022.44 648.886 2022.44 661.926 2022.44 682.176 2006.02 698.593 1985.77 698.593 1965.52 698.593 1949.1 682.176 1949.1 661.926 1949.1 648.513 1967.85 614.025 1985.72 585.893ZM1985.77 559.259C1985.77 559.259 1934.44 633.326 1934.44 661.926 1934.44 690.277 1957.42 713.259 1985.77 713.259 2014.12 713.259 2037.1 690.277 2037.1 661.926 2037.1 634.059 1985.77 559.259 1985.77 559.259Z" fill="#000000" fill-rule="nonzero" fill-opacity="1"/><path d="M2110.38 586.187C2122.39 605.849 2132.44 625.702 2132.44 632.593 2132.44 644.743 2122.59 654.593 2110.44 654.593 2098.28 654.593 2088.44 644.743 2088.44 632.593 2088.44 625.426 2098.42 605.641 2110.38 586.187ZM2110.44 559.259C2110.44 559.259 2073.77 612.059 2073.77 632.593 2073.77 652.843 2090.19 669.259 2110.44 669.259 2130.69 669.259 2147.1 652.843 2147.1 632.593 2147.1 612.793 2110.44 559.259 2110.44 559.259Z" fill="#000000" fill-rule="nonzero" fill-opacity="1"/><path d="M1861.04 586.187C1873.05 605.849 1883.1 625.702 1883.1 632.593 1883.1 644.743 1873.25 654.593 1861.1 654.593 1848.95 654.593 1839.1 644.743 1839.1 632.593 1839.1 625.426 1849.09 605.641 1861.04 586.187ZM1861.1 559.259C1861.1 559.259 1824.44 612.059 1824.44 632.593 1824.44 652.843 1840.85 669.259 1861.1 669.259 1881.35 669.259 1897.77 652.843 1897.77 632.593 1897.77 612.793 1861.1 559.259 1861.1 559.259Z" fill="#000000" fill-rule="nonzero" fill-opacity="1"/><path d="M1945.2 266.466 1945.2 266.466C1978.85 266.422 2009.79 284.952 2025.63 314.646L2031.42 325.47 2043.09 321.684C2050.61 319.233 2058.46 317.98 2066.37 317.971 2081.73 317.907 2096.7 322.821 2109.03 331.978L2109.24 332.136 2109.46 332.282C2128.67 345.776 2140 367.861 2139.77 391.333L2139.77 409.585 2157.01 406.505C2160.15 405.944 2163.33 405.661 2166.52 405.659 2179.3 405.68 2191.66 410.271 2201.36 418.603 2213.5 429.035 2220.47 444.258 2220.44 460.267 2220.68 489.907 2197.53 514.478 2167.92 516L1816.88 516C1776.45 512.848 1746.23 477.518 1749.38 437.089 1752.36 398.893 1784.2 369.406 1822.52 369.371 1826.95 369.371 1831.38 369.771 1835.74 370.564L1852.77 373.66 1853.03 356.353C1854.44 306.421 1895.24 266.629 1945.2 266.466M1945.2 251.799C1887.23 251.963 1839.9 298.188 1838.37 356.133 1833.14 355.182 1827.83 354.703 1822.52 354.703 1773.88 354.432 1734.23 393.643 1733.96 442.284 1733.69 488.917 1769.83 527.67 1816.37 530.667L2168.37 530.667C2205.86 528.828 2235.27 497.806 2235.1 460.267 2235.18 439.967 2226.33 420.66 2210.9 407.467 2195.36 394.096 2174.62 388.439 2154.44 392.067L2154.44 391.333C2154.03 342.87 2114.83 303.688 2066.37 303.305 2056.93 303.316 2047.55 304.81 2038.57 307.733 2020.1 273.332 1984.24 251.848 1945.2 251.799Z" fill="#000000" fill-rule="nonzero" fill-opacity="1"/></g></g></g><path d="M2789.5 1126.5C2789.5 1106.62 2804.72 1090.5 2823.5 1090.5 2842.28 1090.5 2857.5 1106.62 2857.5 1126.5 2857.5 1146.38 2842.28 1162.5 2823.5 1162.5 2804.72 1162.5 2789.5 1146.38 2789.5 1126.5Z" stroke="#1C334E" stroke-width="9.16667" stroke-linecap="butt" stroke-linejoin="round" stroke-miterlimit="10" stroke-opacity="1" fill="#4F81BD" fill-rule="evenodd" fill-opacity="1"/><path d="M3109.5 1099.5C3109.5 1079.62 3124.72 1063.5 3143.5 1063.5 3162.28 1063.5 3177.5 1079.62 3177.5 1099.5 3177.5 1119.38 3162.28 1135.5 3143.5 1135.5 3124.72 1135.5 3109.5 1119.38 3109.5 1099.5Z" stroke="#1C334E" stroke-width="9.16667" stroke-linecap="butt" stroke-linejoin="round" stroke-miterlimit="10" stroke-opacity="1" fill="#4F81BD" fill-rule="evenodd" fill-opacity="1"/><path d="M3408.5 1086.5C3408.5 1066.62 3423.5 1050.5 3442 1050.5 3460.5 1050.5 3475.5 1066.62 3475.5 1086.5 3475.5 1106.38 3460.5 1122.5 3442 1122.5 3423.5 1122.5 3408.5 1106.38 3408.5 1086.5Z" stroke="#1C334E" stroke-width="9.16667" stroke-linecap="butt" stroke-linejoin="round" stroke-miterlimit="10" stroke-opacity="1" fill="#4F81BD" fill-rule="evenodd" fill-opacity="1"/><path d="M3784.5 1088.5C3784.5 1068.62 3799.72 1052.5 3818.5 1052.5 3837.28 1052.5 3852.5 1068.62 3852.5 1088.5 3852.5 1108.38 3837.28 1124.5 3818.5 1124.5 3799.72 1124.5 3784.5 1108.38 3784.5 1088.5Z" stroke="#1C334E" stroke-width="9.16667" stroke-linecap="butt" stroke-linejoin="round" stroke-miterlimit="10" stroke-opacity="1" fill="#4F81BD" fill-rule="evenodd" fill-opacity="1"/><path d="M3554.5 1384.5C3554.5 1364.62 3569.72 1348.5 3588.5 1348.5 3607.28 1348.5 3622.5 1364.62 3622.5 1384.5 3622.5 1404.38 3607.28 1420.5 3588.5 1420.5 3569.72 1420.5 3554.5 1404.38 3554.5 1384.5Z" stroke="#1C334E" stroke-width="9.16667" stroke-linecap="butt" stroke-linejoin="round" stroke-miterlimit="10" stroke-opacity="1" fill="#4F81BD" fill-rule="evenodd" fill-opacity="1"/><path d="M2981.5 1353.5C2981.5 1333.62 2996.72 1317.5 3015.5 1317.5 3034.28 1317.5 3049.5 1333.62 3049.5 1353.5 3049.5 1373.38 3034.28 1389.5 3015.5 1389.5 2996.72 1389.5 2981.5 1373.38 2981.5 1353.5Z" stroke="#1C334E" stroke-width="9.16667" stroke-linecap="butt" stroke-linejoin="round" stroke-miterlimit="10" stroke-opacity="1" fill="#4F81BD" fill-rule="evenodd" fill-opacity="1"/><path d="M3271.5 1626C3271.5 1606.39 3286.72 1590.5 3305.5 1590.5 3324.28 1590.5 3339.5 1606.39 3339.5 1626 3339.5 1645.61 3324.28 1661.5 3305.5 1661.5 3286.72 1661.5 3271.5 1645.61 3271.5 1626Z" stroke="#1C334E" stroke-width="9.16667" stroke-linecap="butt" stroke-linejoin="round" stroke-miterlimit="10" stroke-opacity="1" fill="#4F81BD" fill-rule="evenodd" fill-opacity="1"/><path d="M2783.5 1661.5C2783.5 1641.62 2798.72 1625.5 2817.5 1625.5 2836.28 1625.5 2851.5 1641.62 2851.5 1661.5 2851.5 1681.38 2836.28 1697.5 2817.5 1697.5 2798.72 1697.5 2783.5 1681.38 2783.5 1661.5Z" stroke="#1C334E" stroke-width="9.16667" stroke-linecap="butt" stroke-linejoin="round" stroke-miterlimit="10" stroke-opacity="1" fill="#4F81BD" fill-rule="evenodd" fill-opacity="1"/><path d="M3039.5 1824.5C3039.5 1804.62 3054.5 1788.5 3073 1788.5 3091.5 1788.5 3106.5 1804.62 3106.5 1824.5 3106.5 1844.38 3091.5 1860.5 3073 1860.5 3054.5 1860.5 3039.5 1844.38 3039.5 1824.5Z" stroke="#1C334E" stroke-width="9.16667" stroke-linecap="butt" stroke-linejoin="round" stroke-miterlimit="10" stroke-opacity="1" fill="#4F81BD" fill-rule="evenodd" fill-opacity="1"/><path d="M3666.5 1652.5C3666.5 1632.62 3681.5 1616.5 3700 1616.5 3718.5 1616.5 3733.5 1632.62 3733.5 1652.5 3733.5 1672.38 3718.5 1688.5 3700 1688.5 3681.5 1688.5 3666.5 1672.38 3666.5 1652.5Z" stroke="#1C334E" stroke-width="9.16667" stroke-linecap="butt" stroke-linejoin="round" stroke-miterlimit="10" stroke-opacity="1" fill="#4F81BD" fill-rule="evenodd" fill-opacity="1"/><path d="M3929.5 1653.5C3929.5 1633.62 3944.72 1617.5 3963.5 1617.5 3982.28 1617.5 3997.5 1633.62 3997.5 1653.5 3997.5 1673.38 3982.28 1689.5 3963.5 1689.5 3944.72 1689.5 3929.5 1673.38 3929.5 1653.5Z" stroke="#1C334E" stroke-width="9.16667" stroke-linecap="butt" stroke-linejoin="round" stroke-miterlimit="10" stroke-opacity="1" fill="#4F81BD" fill-rule="evenodd" fill-opacity="1"/><path d="M3699.5 1865.5C3699.5 1845.62 3714.72 1829.5 3733.5 1829.5 3752.28 1829.5 3767.5 1845.62 3767.5 1865.5 3767.5 1885.38 3752.28 1901.5 3733.5 1901.5 3714.72 1901.5 3699.5 1885.38 3699.5 1865.5Z" stroke="#1C334E" stroke-width="9.16667" stroke-linecap="butt" stroke-linejoin="round" stroke-miterlimit="10" stroke-opacity="1" fill="#4F81BD" fill-rule="evenodd" fill-opacity="1"/><path d="M3374.5 2018C3374.5 1998.39 3389.72 1982.5 3408.5 1982.5 3427.28 1982.5 3442.5 1998.39 3442.5 2018 3442.5 2037.61 3427.28 2053.5 3408.5 2053.5 3389.72 2053.5 3374.5 2037.61 3374.5 2018Z" stroke="#1C334E" stroke-width="9.16667" stroke-linecap="butt" stroke-linejoin="round" stroke-miterlimit="10" stroke-opacity="1" fill="#4F81BD" fill-rule="evenodd" fill-opacity="1"/><path d="M2850.16 1149.33 2979.62 1308.14 2974.29 1312.49 2844.84 1153.67ZM2984.72 1298.07 2991.44 1328.08 2963.4 1315.45Z" fill="#4A7EBB" fill-rule="nonzero" fill-opacity="1"/><path d="M3.19846-1.25947 74.9061 180.844 68.5091 183.363-3.19846 1.25947ZM82.8221 172.8 80.104 203.426 57.2344 182.876Z" fill="#4A7EBB" fill-rule="nonzero" fill-opacity="1" transform="matrix(-1 0 0 1 3119.6 1124.5)"/><path d="M3469.69 1110.23 3559.92 1336.47 3553.54 1339.01 3463.31 1112.77ZM3567.8 1328.39 3565.22 1359.03 3542.26 1338.58Z" fill="#4A7EBB" fill-rule="nonzero" fill-opacity="1"/><path d="M2.76094-2.04783 171.033 224.821 165.511 228.917-2.76094 2.04783ZM176.585 214.997 181.924 245.275 154.498 231.379Z" fill="#4A7EBB" fill-rule="nonzero" fill-opacity="1" transform="matrix(-1 0 0 1 3794.42 1113.5)"/><path d="M2.16624-2.66905 219.617 173.817 215.284 179.155-2.16624 2.66905ZM222.557 162.921 235.244 190.927 205.227 184.274Z" fill="#4A7EBB" fill-rule="nonzero" fill-opacity="1" transform="matrix(-1 0 0 1 3564.74 1409.5)"/><path d="M3041.82 1375.96 3267.06 1582.15 3262.41 1587.22 3037.18 1381.04ZM3270.64 1571.45 3281.64 1600.16 3252.07 1591.73Z" fill="#4A7EBB" fill-rule="nonzero" fill-opacity="1"/><path d="M2843.14 1683.48 3030.55 1784.96 3027.28 1791 2839.86 1689.52ZM3031.43 1773.71 3049.07 1798.89 3018.34 1797.89Z" fill="#4A7EBB" fill-rule="nonzero" fill-opacity="1"/><path d="M2.15089-2.68143 168.956 131.121 164.655 136.483-2.15089 2.68143ZM171.834 120.208 184.682 148.141 154.627 141.66Z" fill="#4A7EBB" fill-rule="nonzero" fill-opacity="1" transform="matrix(-1 0 0 1 3282.18 1651.5)"/><path d="M3099.03 1846.42 3365.87 1978.91 3362.81 1985.07 3095.97 1852.58ZM3366.35 1967.64 3384.86 1992.18 3354.12 1992.27Z" fill="#4A7EBB" fill-rule="nonzero" fill-opacity="1"/><path d="M2.28251-2.57032 166.774 143.503 162.209 148.643-2.28251 2.57032ZM170.195 132.748 181.627 161.29 151.934 153.311Z" fill="#4A7EBB" fill-rule="nonzero" fill-opacity="1" transform="matrix(-1 0 0 1 3939.13 1678.5)"/><path d="M3702.84 1687.7 3731.35 1806.67 3724.66 1808.27 3696.16 1689.3ZM3740.31 1799.81 3733.34 1829.76 3713.56 1806.22Z" fill="#4A7EBB" fill-rule="nonzero" fill-opacity="1"/><path d="M1.18366-3.22728 257.33 90.7187 254.963 97.1733-1.18366 3.22728ZM256.578 79.4586 277.662 101.837 247.109 105.277Z" fill="#4A7EBB" fill-rule="nonzero" fill-opacity="1" transform="matrix(-1 0 0 1 3710.16 1890.5)"/><text fill="#000000" fill-opacity="1" font-family="Book Antiqua,Book Antiqua_MSFontService,sans-serif" font-style="normal" font-variant="normal" font-weight="400" font-stretch="normal" font-size="64" text-anchor="start" direction="ltr" writing-mode="lr-tb" unicode-bidi="normal" text-decoration="none" transform="matrix(1 0 0 1 2736.71 1202)">A</text><text fill="#000000" fill-opacity="1" font-family="Book Antiqua,Book Antiqua_MSFontService,sans-serif" font-style="normal" font-variant="normal" font-weight="400" font-stretch="normal" font-size="64" text-anchor="start" direction="ltr" writing-mode="lr-tb" unicode-bidi="normal" text-decoration="none" transform="matrix(1 0 0 1 3047.3 1129)">B</text><text fill="#000000" fill-opacity="1" font-family="Book Antiqua,Book Antiqua_MSFontService,sans-serif" font-style="normal" font-variant="normal" font-weight="400" font-stretch="normal" font-size="64" text-anchor="start" direction="ltr" writing-mode="lr-tb" unicode-bidi="normal" text-decoration="none" transform="matrix(1 0 0 1 2985.62 1450)">C</text><text fill="#000000" fill-opacity="1" font-family="Book Antiqua,Book Antiqua_MSFontService,sans-serif" font-style="normal" font-variant="normal" font-weight="400" font-stretch="normal" font-size="64" text-anchor="start" direction="ltr" writing-mode="lr-tb" unicode-bidi="normal" text-decoration="none" transform="matrix(1 0 0 1 3370.49 1181)">D</text><text fill="#000000" fill-opacity="1" font-family="Book Antiqua,Book Antiqua_MSFontService,sans-serif" font-style="normal" font-variant="normal" font-weight="400" font-stretch="normal" font-size="64" text-anchor="start" direction="ltr" writing-mode="lr-tb" unicode-bidi="normal" text-decoration="none" transform="matrix(1 0 0 1 3867 1167)">E</text><text fill="#000000" fill-opacity="1" font-family="Book Antiqua,Book Antiqua_MSFontService,sans-serif" font-style="normal" font-variant="normal" font-weight="400" font-stretch="normal" font-size="64" text-anchor="start" direction="ltr" writing-mode="lr-tb" unicode-bidi="normal" text-decoration="none" transform="matrix(1 0 0 1 3631.74 1448)">F</text><text fill="#000000" fill-opacity="1" font-family="Book Antiqua,Book Antiqua_MSFontService,sans-serif" font-style="normal" font-variant="normal" font-weight="400" font-stretch="normal" font-size="64" text-anchor="start" direction="ltr" writing-mode="lr-tb" unicode-bidi="normal" text-decoration="none" transform="matrix(1 0 0 1 3358.7 1691)">G</text><text fill="#000000" fill-opacity="1" font-family="Book Antiqua,Book Antiqua_MSFontService,sans-serif" font-style="normal" font-variant="normal" font-weight="400" font-stretch="normal" font-size="64" text-anchor="start" direction="ltr" writing-mode="lr-tb" unicode-bidi="normal" text-decoration="none" transform="matrix(1 0 0 1 2768.82 1751)">H</text><text fill="#000000" fill-opacity="1" font-family="Book Antiqua,Book Antiqua_MSFontService,sans-serif" font-style="normal" font-variant="normal" font-weight="400" font-stretch="normal" font-size="64" text-anchor="start" direction="ltr" writing-mode="lr-tb" unicode-bidi="normal" text-decoration="none" transform="matrix(1 0 0 1 3025.87 1919)">L</text><text fill="#000000" fill-opacity="1" font-family="Book Antiqua,Book Antiqua_MSFontService,sans-serif" font-style="normal" font-variant="normal" font-weight="400" font-stretch="normal" font-size="64" text-anchor="start" direction="ltr" writing-mode="lr-tb" unicode-bidi="normal" text-decoration="none" transform="matrix(1 0 0 1 3379.93 2115)">M</text><text fill="#000000" fill-opacity="1" font-family="Book Antiqua,Book Antiqua_MSFontService,sans-serif" font-style="normal" font-variant="normal" font-weight="400" font-stretch="normal" font-size="64" text-anchor="start" direction="ltr" writing-mode="lr-tb" unicode-bidi="normal" text-decoration="none" transform="matrix(1 0 0 1 3775.36 1951)">K</text><text fill="#000000" fill-opacity="1" font-family="Book Antiqua,Book Antiqua_MSFontService,sans-serif" font-style="normal" font-variant="normal" font-weight="400" font-stretch="normal" font-size="64" text-anchor="start" direction="ltr" writing-mode="lr-tb" unicode-bidi="normal" text-decoration="none" transform="matrix(1 0 0 1 3628.78 1636)">I</text><text fill="#000000" fill-opacity="1" font-family="Book Antiqua,Book Antiqua_MSFontService,sans-serif" font-style="normal" font-variant="normal" font-weight="400" font-stretch="normal" font-size="64" text-anchor="start" direction="ltr" writing-mode="lr-tb" unicode-bidi="normal" text-decoration="none" transform="matrix(1 0 0 1 3895.88 1640)">J</text><path d="M3331.5 417.5C3331.5 397.618 3346.72 381.5 3365.5 381.5 3384.28 381.5 3399.5 397.618 3399.5 417.5 3399.5 437.382 3384.28 453.5 3365.5 453.5 3346.72 453.5 3331.5 437.382 3331.5 417.5Z" stroke="#1C334E" stroke-width="9.16667" stroke-linecap="butt" stroke-linejoin="round" stroke-miterlimit="10" stroke-opacity="1" fill="#F2F2F2" fill-rule="evenodd" fill-opacity="1"/><path d="M3.23027-1.17548 217.568 587.832 211.107 590.183-3.23027 1.17548ZM225.691 579.999 222.174 610.543 199.849 589.403Z" fill="#D99694" fill-rule="nonzero" fill-opacity="1" transform="matrix(-1 0 0 1 3365.67 453.5)"/><path d="M3368.91 453.064 3442.39 1027.51 3435.57 1028.38 3362.09 453.936ZM3452.04 1021.65 3441.89 1050.67 3424.76 1025.14Z" fill="#D99694" fill-rule="nonzero" fill-opacity="1"/><path d="M0.151945-3.43414 7.56454-3.10617 15.271-2.10297 22.9565-0.43755 30.613 1.87596 38.2342 4.82297 45.8152 8.3889 53.3524 12.5596 60.8429 17.3214 68.2847 22.6615 75.6759 28.5676 83.0146 35.0278 90.2991 42.031 97.5275 49.5663 104.698 57.6229 111.808 66.1904 118.855 75.2586 125.837 84.8172 132.75 94.8561 139.594 105.365 146.363 116.334 153.056 127.753 159.669 139.612 166.199 151.901 172.643 164.61 178.997 177.728 185.259 191.246 191.424 205.153 197.49 219.44 209.301 249.087 220.682 280.154 231.595 312.535 242.012 346.147 251.904 380.91 261.244 416.742 270.002 453.56 278.15 491.283 285.66 529.829 292.501 569.116 298.647 609.062 304.066 649.585 308.732 690.603 312.615 732.033 315.685 773.794 317.915 815.803 319.274 857.979 319.485 877.324 312.61 877.398 312.402 858.2 311.049 816.167 308.829 774.298 305.77 732.674 301.901 691.38 297.252 650.497 291.852 610.108 285.728 570.296 278.912 531.144 271.43 492.735 263.314 455.151 254.591 418.476 245.292 382.792 235.445 348.182 225.08 314.73 214.226 282.519 202.914 251.631 191.162 222.126 185.139 207.939 179.021 194.135 172.81 180.725 166.511 167.719 160.128 155.127 153.664 142.96 147.124 131.229 140.512 119.944 133.832 109.116 127.088 98.755 120.284 88.8716 113.426 79.4764 106.516 70.5799 99.5611 62.1924 92.5649 54.3242 85.5328 46.9856 78.4699 40.1864 71.3815 33.9364 64.2733 28.2448 57.1505 23.1207 50.0186 18.5722 42.8826 14.607 35.747 11.2323 28.6154 8.45436 21.4902 6.27926 14.3721 4.71302 7.26065 3.76211-0.151945 3.43414ZM329.747 872.629 316.297 900.276 302.249 872.927Z" fill="#D99694" fill-rule="nonzero" fill-opacity="1" transform="matrix(-1 1.22465e-16 1.22465e-16 1 3331.8 417.5)"/><path d="M0.070778-3.43677 11.9783-3.19154 24.0199-2.45527 36.0469-1.23595 48.0531 0.458345 60.0324 2.61954 71.9788 5.23954 83.8861 8.31025 95.7486 11.8236 107.56 15.7714 119.315 20.1458 131.008 24.9385 142.632 30.1417 154.183 35.7474 165.653 41.7475 177.039 48.1341 188.333 54.8993 210.588 69.5086 232.452 85.5629 253.839 102.975 274.702 121.683 294.997 141.624 314.679 162.737 333.701 184.96 352.017 208.231 369.583 232.489 386.352 257.672 402.278 283.719 417.316 310.569 431.418 338.16 444.539 366.431 456.632 395.32 467.651 424.768 477.549 454.711 486.28 485.09 493.797 515.842 500.053 546.906 505.002 578.222 508.596 609.727 510.788 641.361 510.997 650.15 504.124 650.311 503.93 641.835 501.765 610.506 498.211 579.294 493.314 548.263 487.119 517.474 479.672 486.988 471.021 456.868 461.212 427.177 450.29 397.975 438.302 369.324 425.296 341.288 411.317 313.928 396.413 287.305 380.629 261.482 364.014 236.52 346.615 212.482 328.477 189.43 309.649 167.424 290.178 146.527 270.112 126.801 249.497 108.306 228.382 91.1038 206.814 75.2554 184.8 60.7968 173.675 54.1297 162.466 47.839 151.18 41.9321 139.823 36.4164 128.399 31.2995 116.917 26.5887 105.38 22.2915 93.7951 18.4152 82.1681 14.9671 70.5047 11.9546 58.8104 9.38506 47.0909 7.26569 35.3519 5.60383 23.5987 4.40682 11.8368 3.682-0.070778 3.43677ZM521.2 645.328 508.096 673.141 493.708 645.97Z" fill="#D99694" fill-rule="nonzero" fill-opacity="1" transform="matrix(-1 1.22465e-16 1.22465e-16 1 3331.6 417.5)"/><path d="M3399.58 414.064 3409.4 414.295 3419.37 414.992 3429.33 416.146 3439.27 417.751 3449.19 419.798 3459.07 422.278 3468.93 425.186 3478.74 428.511 3488.51 432.248 3498.23 436.387 3507.9 440.921 3517.5 445.843 3527.05 451.144 3536.53 456.818 3555.22 469.222 3573.63 483.052 3591.68 498.22 3609.34 514.668 3626.55 532.336 3643.3 551.166 3659.53 571.099 3675.23 592.078 3690.33 614.045 3704.82 636.94 3718.65 660.708 3731.78 685.289 3744.18 710.626 3755.81 736.662 3766.62 763.337 3776.59 790.596 3785.68 818.379 3793.84 846.629 3801.03 875.289 3807.23 904.3 3812.39 933.605 3816.46 963.145 3819.43 992.864 3821.23 1022.7 3821.38 1029.69 3814.5 1029.83 3814.37 1023.12 3812.58 993.546 3809.65 964.085 3805.61 934.796 3800.51 905.735 3794.36 876.963 3787.23 848.536 3779.14 820.515 3770.14 792.957 3760.25 765.92 3749.53 739.465 3738 713.648 3725.72 688.528 3712.7 664.165 3699.01 640.616 3684.67 617.94 3669.72 596.195 3654.2 575.441 3638.16 555.734 3621.63 537.133 3604.65 519.697 3587.26 503.483 3569.5 488.548 3551.42 474.949 3533 462.716 3523.71 457.154 3514.37 451.961 3504.98 447.145 3495.54 442.712 3486.05 438.669 3476.53 435.022 3466.98 431.779 3457.4 428.946 3447.79 426.53 3438.17 424.538 3428.54 422.975 3418.89 421.85 3409.24 421.168 3399.42 420.937ZM3831.59 1024.9 3818.41 1052.68 3804.1 1025.46Z" fill="#D99694" fill-rule="nonzero" fill-opacity="1"/><path d="M3399.76 414.073 3404.19 414.412C3404.36 414.425 3404.53 414.45 3404.7 414.488L3409.13 415.498 3414 417.305 3418.81 419.798 3423.53 422.948 3428.19 426.727 3432.78 431.116 3437.32 436.101 3441.81 441.667 3446.25 447.805 3450.65 454.505 3455.01 461.757 3459.34 469.552 3463.62 477.88 3467.87 486.733 3472.08 496.1 3476.25 505.972 3480.38 516.339 3484.46 527.19 3488.5 538.517 3492.5 550.309 3496.45 562.555 3500.35 575.245 3504.19 588.37 3507.99 601.918 3511.73 615.879 3515.41 630.244 3519.03 645 3522.59 660.139 3526.09 675.649 3532.88 707.728 3539.4 741.181 3545.63 775.909 3551.54 811.828 3557.11 848.852 3562.35 886.897 3567.22 925.878 3571.7 965.711 3575.79 1006.31 3579.46 1047.59 3582.7 1089.47 3585.49 1131.85 3587.81 1174.67 3589.64 1217.82 3590.97 1261.23 3591.78 1304.82 3591.92 1325.57 3585.04 1325.61 3584.91 1304.95 3584.1 1261.45 3582.77 1218.11 3580.94 1175.04 3578.63 1132.3 3575.84 1090 3572.61 1048.2 3568.95 1007 3564.87 966.48 3560.39 926.73 3555.54 887.834 3550.32 849.877 3544.75 812.944 3538.86 777.122 3532.65 742.496 3526.16 709.152 3519.38 677.162 3515.9 661.713 3512.35 646.639 3508.75 631.951 3505.09 617.658 3501.37 603.772 3497.6 590.304 3493.77 577.264 3489.9 564.664 3485.99 552.515 3482.03 540.827 3478.03 529.612 3473.99 518.882 3469.91 508.646 3465.81 498.917 3461.67 489.706 3457.51 481.025 3453.32 472.885 3449.12 465.299 3444.9 458.277 3440.68 451.833 3436.45 445.977 3432.23 440.722 3428.02 436.078 3423.84 432.054 3419.7 428.656 3415.61 425.885 3411.57 423.737 3407.6 422.201 3403.17 421.191 3403.67 421.267 3399.24 420.928ZM3602.2 1320.92 3588.62 1348.51 3574.7 1321.1Z" fill="#D99694" fill-rule="nonzero" fill-opacity="1"/><path d="M0.125459-3.43521 12.1777-2.99504 24.4707-1.66586 36.7429 0.537008 48.986 3.5977 61.1923 7.50007 73.3547 12.2279 85.4669 17.765 97.523 24.0954 109.518 31.2035 121.446 39.074 133.302 47.6916 145.082 57.0417 156.78 67.1096 168.392 77.881 179.913 89.3416 191.337 101.477 202.661 114.274 213.878 127.719 224.983 141.797 235.971 156.494 246.837 171.798 257.575 187.693 268.181 204.168 278.647 221.207 288.969 238.797 299.142 256.924 309.159 275.575 319.015 294.736 328.704 314.394 338.221 334.533 347.56 355.142 356.714 376.206 365.679 397.711 374.449 419.643 383.017 441.99 391.378 464.737 399.527 487.87 407.457 511.376 422.63 559.429 436.867 608.83 450.111 659.445 462.318 711.166 473.44 763.882 483.429 817.482 492.24 871.857 499.824 926.896 506.136 982.49 511.127 1038.53 514.751 1094.9 516.961 1151.49 517.521 1179.86 517.557 1185.3 510.682 1185.35 510.647 1179.99 510.091 1151.76 507.89 1095.34 504.279 1039.14 499.305 983.265 493.014 927.835 485.453 872.956 476.671 818.742 466.713 765.301 455.627 712.745 443.46 661.185 430.26 610.733 416.074 561.499 400.942 513.573 393.042 490.154 384.926 467.109 376.598 444.451 368.065 422.196 359.334 400.356 350.409 378.946 341.298 357.98 332.005 337.471 322.538 317.433 312.901 297.881 303.102 278.828 293.146 260.288 283.04 242.276 272.789 224.805 262.4 207.889 251.878 191.542 241.231 175.778 230.465 160.611 219.585 146.054 208.598 132.123 197.512 118.83 186.331 106.189 175.064 94.215 163.716 82.9206 152.294 72.3197 140.806 62.4257 129.258 53.2519 117.658 44.8113 106.011 37.1169 94.3246 30.1811 82.6058 24.0163 70.8606 18.6345 59.0951 14.0474 47.3145 10.2664 35.5237 7.30304 23.7267 5.16876 11.9268 3.87538-0.125459 3.43521ZM527.839 1180.65 514.271 1208.24 500.34 1180.83Z" fill="#D99694" fill-rule="nonzero" fill-opacity="1" transform="matrix(-1 1.22465e-16 1.22465e-16 1 3331.77 417.5)"/><path d="M3399.71 414.069 3406.75 414.506 3414.2 415.858 3421.61 418.104 3428.97 421.218 3436.27 425.175 3443.51 429.95 3450.69 435.522 3457.82 441.873 3464.88 448.986 3471.89 456.845 3478.85 465.435 3485.75 474.744 3492.6 484.758 3499.39 495.464 3506.13 506.848 3512.8 518.898 3519.42 531.601 3525.97 544.943 3532.45 558.911 3538.86 573.492 3545.21 588.674 3551.48 604.442 3557.67 620.783 3563.77 637.683 3569.8 655.131 3575.74 673.111 3581.58 691.61 3587.34 710.615 3592.99 730.113 3598.55 750.089 3604 770.531 3609.34 791.424 3614.57 812.755 3619.69 834.511 3624.69 856.677 3629.57 879.241 3634.33 902.188 3638.96 925.504 3647.82 973.18 3656.13 1022.18 3663.86 1072.39 3670.98 1123.7 3677.47 1176 3683.31 1229.17 3688.45 1283.11 3692.88 1337.71 3696.56 1392.86 3699.47 1448.45 3701.59 1504.37 3702.88 1560.5 3703.14 1593.84 3696.26 1593.89 3696.01 1560.66 3694.72 1504.63 3692.61 1448.81 3689.7 1393.32 3686.02 1338.27 3681.61 1283.76 3676.47 1229.92 3670.65 1176.84 3664.17 1124.65 3657.06 1073.44 3649.35 1023.33 3641.06 974.435 3632.21 926.843 3627.6 903.583 3622.85 880.694 3617.99 858.19 3613 836.085 3607.9 814.393 3602.68 793.127 3597.35 772.302 3591.92 751.931 3586.39 732.028 3580.76 712.607 3575.03 693.682 3569.21 675.266 3563.3 657.374 3557.31 640.02 3551.24 623.218 3545.09 606.981 3538.86 591.324 3532.57 576.261 3526.21 561.805 3519.79 547.972 3513.32 534.775 3506.79 522.229 3500.21 510.348 3493.59 499.146 3486.92 488.637 3480.23 478.837 3473.51 469.76 3466.76 461.419 3460 453.828 3453.24 447.001 3446.47 440.949 3439.72 435.684 3432.99 431.213 3426.28 427.543 3419.6 424.678 3412.95 422.619 3406.33 421.368 3399.29 420.931ZM3713.41 1589.18 3699.88 1616.78 3685.91 1589.39Z" fill="#D99694" fill-rule="nonzero" fill-opacity="1"/><path d="M3399.61 414.064 3413.38 414.505 3427.36 415.833 3441.32 418.033 3455.26 421.089 3469.15 424.986 3483.01 429.709 3496.81 435.242 3510.55 441.571 3524.22 448.679 3537.83 456.552 3551.36 465.175 3564.8 474.532 3578.16 484.611 3591.41 495.395 3604.57 506.872 3617.62 519.026 3630.55 531.844 3643.37 545.312 3656.05 559.415 3668.61 574.14 3681.02 589.473 3693.29 605.399 3705.41 621.906 3717.37 638.98 3729.17 656.606 3740.79 674.771 3752.24 693.461 3763.5 712.662 3774.57 732.361 3785.45 752.544 3796.12 773.196 3806.58 794.305 3816.83 815.856 3826.85 837.836 3836.64 860.231 3846.2 883.026 3855.51 906.209 3864.57 929.766 3881.91 977.921 3898.19 1027.43 3913.32 1078.15 3927.27 1129.99 3939.98 1182.82 3951.4 1236.53 3961.47 1291.03 3970.14 1346.19 3973.93 1374.01 3977.35 1401.93 3980.4 1429.96 3983.06 1458.09 3985.33 1486.3 3987.2 1514.58 3988.67 1542.92 3989.73 1571.3 3990.36 1599.71 3990.41 1605.22 3983.53 1605.27 3983.49 1599.87 3982.85 1571.56 3981.8 1543.28 3980.34 1515.04 3978.48 1486.85 3976.21 1458.73 3973.56 1430.7 3970.53 1402.76 3967.12 1374.93 3963.35 1347.25 3954.71 1292.28 3944.68 1237.96 3933.3 1184.43 3920.63 1131.77 3906.73 1080.12 3891.65 1029.57 3875.45 980.25 3858.16 932.234 3849.13 908.772 3839.86 885.684 3830.34 862.985 3820.6 840.688 3810.62 818.808 3800.42 797.358 3790.01 776.352 3779.4 755.805 3768.58 735.73 3757.57 716.141 3746.37 697.052 3735 678.477 3723.45 660.43 3711.74 642.924 3699.87 625.975 3687.84 609.595 3675.68 593.799 3663.37 578.6 3650.94 564.012 3638.38 550.05 3625.71 536.727 3612.93 524.056 3600.05 512.052 3587.07 500.728 3574.01 490.098 3560.87 480.174 3547.66 470.971 3534.39 462.502 3521.05 454.778 3507.67 447.815 3494.25 441.623 3480.78 436.215 3467.29 431.605 3453.78 427.803 3440.25 424.823 3426.71 422.677 3413.16 421.377 3399.39 420.936ZM4000.68 1600.56 3987.14 1628.16 3973.18 1600.77Z" fill="#D99694" fill-rule="nonzero" fill-opacity="1"/><path d="M3.4327-0.18161 62.3627 1113.68 55.4973 1114.04-3.4327 0.18161ZM72.4185 1108.56 60.1406 1136.74 44.9569 1110.01Z" fill="#D99694" fill-rule="nonzero" fill-opacity="1" transform="matrix(-1 0 0 1 3365.64 453.5)"/><path d="M3.3578-0.735919 291.136 1312.32 284.421 1313.79-3.3578 0.735919ZM300.229 1305.64 292.685 1335.44 273.366 1311.52Z" fill="#D99694" fill-rule="nonzero" fill-opacity="1" transform="matrix(-1 0 0 1 3366.18 453.5)"/><path d="M3368.94 453.404 3410.84 1959.19 3403.97 1959.38 3362.06 453.596ZM3421.02 1954.31 3408.04 1982.18 3393.53 1955.08Z" fill="#D99694" fill-rule="nonzero" fill-opacity="1"/><path d="M3399.71 414.069 3408.11 414.587 3416.9 416.181 3425.67 418.827 3434.37 422.496 3443.02 427.162 3451.61 432.796 3460.13 439.377 3468.59 446.881 3476.98 455.291 3485.32 464.587 3493.59 474.753 3501.81 485.773 3509.96 497.631 3518.04 510.311 3526.06 523.797 3534.01 538.075 3541.89 553.127 3549.69 568.939 3557.42 585.495 3565.06 602.779 3572.62 620.776 3580.09 639.468 3587.47 658.841 3594.75 678.879 3601.93 699.565 3609.01 720.884 3615.97 742.819 3622.83 765.354 3629.57 788.474 3636.19 812.162 3642.69 836.402 3649.06 861.178 3655.3 886.474 3661.4 912.273 3667.36 938.56 3673.18 965.317 3678.85 992.53 3684.37 1020.18 3689.73 1048.26 3694.93 1076.74 3699.97 1105.61 3704.84 1134.85 3714.05 1194.39 3722.55 1255.24 3730.28 1317.26 3737.24 1380.32 3743.37 1444.29 3748.65 1509.04 3753.04 1574.45 3756.51 1640.37 3759.03 1706.69 3760.57 1773.27 3760.91 1817.07 3754.04 1817.12 3753.7 1773.43 3752.16 1706.95 3749.65 1640.73 3746.18 1574.91 3741.79 1509.6 3736.52 1444.94 3730.4 1381.07 3723.46 1318.11 3715.74 1256.19 3707.26 1195.44 3698.05 1135.98 3693.19 1106.79 3688.17 1077.97 3682.98 1049.55 3677.62 1021.53 3672.12 993.933 3666.46 966.778 3660.66 940.08 3654.71 913.855 3648.62 888.12 3642.4 862.89 3636.05 838.182 3629.57 814.013 3622.97 790.398 3616.25 767.356 3609.42 744.9 3602.48 723.05 3595.43 701.82 3588.29 681.227 3581.04 661.288 3573.71 642.019 3566.28 623.438 3558.78 605.56 3551.19 588.402 3543.53 571.982 3535.8 556.315 3528.01 541.419 3520.15 527.311 3512.25 514.007 3504.29 501.524 3496.29 489.88 3488.26 479.091 3480.2 469.175 3472.12 460.146 3464.02 452.021 3455.92 444.814 3447.83 438.539 3439.75 433.207 3431.69 428.827 3423.66 425.404 3415.66 422.943 3407.68 421.449 3399.29 420.931ZM3771.19 1812.4 3757.65 1840.01 3743.69 1812.62Z" fill="#D99694" fill-rule="nonzero" fill-opacity="1"/><text fill="#000000" fill-opacity="1" font-family="Book Antiqua,Book Antiqua_MSFontService,sans-serif" font-style="normal" font-variant="normal" font-weight="400" font-stretch="normal" font-size="64" text-anchor="start" direction="ltr" writing-mode="lr-tb" unicode-bidi="normal" text-decoration="none" transform="matrix(1 0 0 1 3348.48 337)">S</text></g></g></svg>